<svg viewBox="0 0 1120 320" xmlns="http://www.w3.org/2000/svg" style="width:100%;height:auto;display:block;font-family:'Archivo',sans-serif;">
  <text x="300" y="24" text-anchor="middle" font-size="21" font-weight="800" fill="#0C1E33">Michigan House</text>
  <text x="300" y="44" text-anchor="middle" font-family="'IBM Plex Mono',monospace" font-size="10.5" letter-spacing="1.5" fill="#5F6875">110 SEATS &#183; EVERY SEAT UP IN 2026</text>
  <circle cx="238.0" cy="212.0" r="10.7" fill="none" stroke="#C9781F" stroke-width="1.5" opacity="0.85"/>
<circle cx="238.0" cy="212.0" r="8.4" fill="#1E6FC4" stroke="#fff" stroke-width="1.3"/>
<circle cx="220.4" cy="212.0" r="10.7" fill="none" stroke="#C9781F" stroke-width="1.5" opacity="0.85"/>
<circle cx="220.4" cy="212.0" r="8.4" fill="#1E6FC4" stroke="#fff" stroke-width="1.3"/>
<circle cx="202.8" cy="212.0" r="10.7" fill="none" stroke="#C9781F" stroke-width="1.5" opacity="0.85"/>
<circle cx="202.8" cy="212.0" r="8.4" fill="#1E6FC4" stroke="#fff" stroke-width="1.3"/>
<circle cx="185.2" cy="212.0" r="10.7" fill="none" stroke="#C9781F" stroke-width="1.5" opacity="0.85"/>
<circle cx="185.2" cy="212.0" r="8.4" fill="#1E6FC4" stroke="#fff" stroke-width="1.3"/>
<circle cx="167.6" cy="212.0" r="10.7" fill="none" stroke="#C9781F" stroke-width="1.5" opacity="0.85"/>
<circle cx="167.6" cy="212.0" r="8.4" fill="#1E6FC4" stroke="#fff" stroke-width="1.3"/>
<circle cx="150.0" cy="212.0" r="10.7" fill="none" stroke="#C9781F" stroke-width="1.5" opacity="0.85"/>
<circle cx="150.0" cy="212.0" r="8.4" fill="#1E6FC4" stroke="#fff" stroke-width="1.3"/>
<circle cx="151.3" cy="192.4" r="10.7" fill="none" stroke="#C9781F" stroke-width="1.5" opacity="0.85"/>
<circle cx="151.3" cy="192.4" r="8.4" fill="#1E6FC4" stroke="#fff" stroke-width="1.3"/>
<circle cx="168.9" cy="193.2" r="10.7" fill="none" stroke="#C9781F" stroke-width="1.5" opacity="0.85"/>
<circle cx="168.9" cy="193.2" r="8.4" fill="#1E6FC4" stroke="#fff" stroke-width="1.3"/>
<circle cx="186.8" cy="193.1" r="10.7" fill="none" stroke="#C9781F" stroke-width="1.5" opacity="0.85"/>
<circle cx="186.8" cy="193.1" r="8.4" fill="#1E6FC4" stroke="#fff" stroke-width="1.3"/>
<circle cx="204.7" cy="193.0" r="10.7" fill="none" stroke="#C9781F" stroke-width="1.5" opacity="0.85"/>
<circle cx="204.7" cy="193.0" r="8.4" fill="#1E6FC4" stroke="#fff" stroke-width="1.3"/>
<circle cx="222.7" cy="193.0" r="10.7" fill="none" stroke="#C9781F" stroke-width="1.5" opacity="0.85"/>
<circle cx="222.7" cy="193.0" r="8.4" fill="#1E6FC4" stroke="#fff" stroke-width="1.3"/>
<circle cx="155.1" cy="173.2" r="10.7" fill="none" stroke="#C9781F" stroke-width="1.5" opacity="0.85"/>
<circle cx="155.1" cy="173.2" r="8.4" fill="#1E6FC4" stroke="#fff" stroke-width="1.3"/>
<circle cx="173.0" cy="174.7" r="10.7" fill="none" stroke="#C9781F" stroke-width="1.5" opacity="0.85"/>
<circle cx="173.0" cy="174.7" r="8.4" fill="#1E6FC4" stroke="#fff" stroke-width="1.3"/>
<circle cx="241.0" cy="192.8" r="10.7" fill="none" stroke="#C9781F" stroke-width="1.5" opacity="0.85"/>
<circle cx="241.0" cy="192.8" r="8.4" fill="#1E6FC4" stroke="#fff" stroke-width="1.3"/>
<circle cx="191.4" cy="174.7" r="10.7" fill="none" stroke="#C9781F" stroke-width="1.5" opacity="0.85"/>
<circle cx="191.4" cy="174.7" r="8.4" fill="#1E6FC4" stroke="#fff" stroke-width="1.3"/>
<circle cx="210.2" cy="174.8" r="10.7" fill="none" stroke="#C9781F" stroke-width="1.5" opacity="0.85"/>
<circle cx="210.2" cy="174.8" r="8.4" fill="#1E6FC4" stroke="#fff" stroke-width="1.3"/>
<circle cx="161.4" cy="154.6" r="10.7" fill="none" stroke="#C9781F" stroke-width="1.5" opacity="0.85"/>
<circle cx="161.4" cy="154.6" r="8.4" fill="#1E6FC4" stroke="#fff" stroke-width="1.3"/>
<circle cx="179.6" cy="157.0" r="10.7" fill="none" stroke="#C9781F" stroke-width="1.5" opacity="0.85"/>
<circle cx="179.6" cy="157.0" r="8.4" fill="#1E6FC4" stroke="#fff" stroke-width="1.3"/>
<circle cx="229.5" cy="175.0" r="10.7" fill="none" stroke="#C9781F" stroke-width="1.5" opacity="0.85"/>
<circle cx="229.5" cy="175.0" r="8.4" fill="#1E6FC4" stroke="#fff" stroke-width="1.3"/>
<circle cx="199.0" cy="157.4" r="10.7" fill="none" stroke="#C9781F" stroke-width="1.5" opacity="0.85"/>
<circle cx="199.0" cy="157.4" r="8.4" fill="#1E6FC4" stroke="#fff" stroke-width="1.3"/>
<circle cx="170.1" cy="137.0" r="10.7" fill="none" stroke="#C9781F" stroke-width="1.5" opacity="0.85"/>
<circle cx="170.1" cy="137.0" r="8.4" fill="#1E6FC4" stroke="#fff" stroke-width="1.3"/>
<circle cx="188.6" cy="140.4" r="10.7" fill="none" stroke="#C9781F" stroke-width="1.5" opacity="0.85"/>
<circle cx="188.6" cy="140.4" r="8.4" fill="#1E6FC4" stroke="#fff" stroke-width="1.3"/>
<circle cx="219.2" cy="158.0" r="10.7" fill="none" stroke="#C9781F" stroke-width="1.5" opacity="0.85"/>
<circle cx="219.2" cy="158.0" r="8.4" fill="#1E6FC4" stroke="#fff" stroke-width="1.3"/>
<circle cx="249.8" cy="175.6" r="10.7" fill="none" stroke="#C9781F" stroke-width="1.5" opacity="0.85"/>
<circle cx="249.8" cy="175.6" r="8.4" fill="#1E6FC4" stroke="#fff" stroke-width="1.3"/>
<circle cx="181.0" cy="120.7" r="10.7" fill="none" stroke="#C9781F" stroke-width="1.5" opacity="0.85"/>
<circle cx="181.0" cy="120.7" r="8.4" fill="#1E6FC4" stroke="#fff" stroke-width="1.3"/>
<circle cx="209.4" cy="141.5" r="10.7" fill="none" stroke="#C9781F" stroke-width="1.5" opacity="0.85"/>
<circle cx="209.4" cy="141.5" r="8.4" fill="#1E6FC4" stroke="#fff" stroke-width="1.3"/>
<circle cx="199.9" cy="125.3" r="10.7" fill="none" stroke="#C9781F" stroke-width="1.5" opacity="0.85"/>
<circle cx="199.9" cy="125.3" r="8.4" fill="#1E6FC4" stroke="#fff" stroke-width="1.3"/>
<circle cx="240.4" cy="159.2" r="10.7" fill="none" stroke="#C9781F" stroke-width="1.5" opacity="0.85"/>
<circle cx="240.4" cy="159.2" r="8.4" fill="#1E6FC4" stroke="#fff" stroke-width="1.3"/>
<circle cx="231.3" cy="143.3" r="10.7" fill="none" stroke="#C9781F" stroke-width="1.5" opacity="0.85"/>
<circle cx="231.3" cy="143.3" r="8.4" fill="#1E6FC4" stroke="#fff" stroke-width="1.3"/>
<circle cx="193.9" cy="105.9" r="10.7" fill="none" stroke="#C9781F" stroke-width="1.5" opacity="0.85"/>
<circle cx="193.9" cy="105.9" r="8.4" fill="#1E6FC4" stroke="#fff" stroke-width="1.3"/>
<circle cx="222.2" cy="127.5" r="10.7" fill="none" stroke="#C9781F" stroke-width="1.5" opacity="0.85"/>
<circle cx="222.2" cy="127.5" r="8.4" fill="#1E6FC4" stroke="#fff" stroke-width="1.3"/>
<circle cx="213.3" cy="111.9" r="10.7" fill="none" stroke="#C9781F" stroke-width="1.5" opacity="0.85"/>
<circle cx="213.3" cy="111.9" r="8.4" fill="#1E6FC4" stroke="#fff" stroke-width="1.3"/>
<circle cx="208.7" cy="93.0" r="10.7" fill="none" stroke="#C9781F" stroke-width="1.5" opacity="0.85"/>
<circle cx="208.7" cy="93.0" r="8.4" fill="#1E6FC4" stroke="#fff" stroke-width="1.3"/>
<circle cx="263.6" cy="161.8" r="10.7" fill="none" stroke="#C9781F" stroke-width="1.5" opacity="0.85"/>
<circle cx="263.6" cy="161.8" r="8.4" fill="#1E6FC4" stroke="#fff" stroke-width="1.3"/>
<circle cx="254.8" cy="146.5" r="10.7" fill="none" stroke="#C9781F" stroke-width="1.5" opacity="0.85"/>
<circle cx="254.8" cy="146.5" r="8.4" fill="#1E6FC4" stroke="#fff" stroke-width="1.3"/>
<circle cx="246.0" cy="131.2" r="10.7" fill="none" stroke="#C9781F" stroke-width="1.5" opacity="0.85"/>
<circle cx="246.0" cy="131.2" r="8.4" fill="#1E6FC4" stroke="#fff" stroke-width="1.3"/>
<circle cx="237.2" cy="115.9" r="10.7" fill="none" stroke="#C9781F" stroke-width="1.5" opacity="0.85"/>
<circle cx="237.2" cy="115.9" r="8.4" fill="#1E6FC4" stroke="#fff" stroke-width="1.3"/>
<circle cx="228.4" cy="100.6" r="10.7" fill="none" stroke="#C9781F" stroke-width="1.5" opacity="0.85"/>
<circle cx="228.4" cy="100.6" r="8.4" fill="#1E6FC4" stroke="#fff" stroke-width="1.3"/>
<circle cx="225.0" cy="82.1" r="10.7" fill="none" stroke="#C9781F" stroke-width="1.5" opacity="0.85"/>
<circle cx="225.0" cy="82.1" r="8.4" fill="#1E6FC4" stroke="#fff" stroke-width="1.3"/>
<circle cx="245.0" cy="91.6" r="10.7" fill="none" stroke="#C9781F" stroke-width="1.5" opacity="0.85"/>
<circle cx="245.0" cy="91.6" r="8.4" fill="#1E6FC4" stroke="#fff" stroke-width="1.3"/>
<circle cx="253.9" cy="106.9" r="10.7" fill="none" stroke="#C9781F" stroke-width="1.5" opacity="0.85"/>
<circle cx="253.9" cy="106.9" r="8.4" fill="#1E6FC4" stroke="#fff" stroke-width="1.3"/>
<circle cx="262.8" cy="122.2" r="10.7" fill="none" stroke="#C9781F" stroke-width="1.5" opacity="0.85"/>
<circle cx="262.8" cy="122.2" r="8.4" fill="#1E6FC4" stroke="#fff" stroke-width="1.3"/>
<circle cx="242.6" cy="73.4" r="10.7" fill="none" stroke="#C9781F" stroke-width="1.5" opacity="0.85"/>
<circle cx="242.6" cy="73.4" r="8.4" fill="#1E6FC4" stroke="#fff" stroke-width="1.3"/>
<circle cx="271.8" cy="137.6" r="10.7" fill="none" stroke="#C9781F" stroke-width="1.5" opacity="0.85"/>
<circle cx="271.8" cy="137.6" r="8.4" fill="#1E6FC4" stroke="#fff" stroke-width="1.3"/>
<circle cx="280.8" cy="153.0" r="10.7" fill="none" stroke="#C9781F" stroke-width="1.5" opacity="0.85"/>
<circle cx="280.8" cy="153.0" r="8.4" fill="#1E6FC4" stroke="#fff" stroke-width="1.3"/>
<circle cx="262.7" cy="85.0" r="10.7" fill="none" stroke="#C9781F" stroke-width="1.5" opacity="0.85"/>
<circle cx="262.7" cy="85.0" r="8.4" fill="#1E6FC4" stroke="#fff" stroke-width="1.3"/>
<circle cx="261.2" cy="67.1" r="10.7" fill="none" stroke="#C9781F" stroke-width="1.5" opacity="0.85"/>
<circle cx="261.2" cy="67.1" r="8.4" fill="#1E6FC4" stroke="#fff" stroke-width="1.3"/>
<circle cx="271.8" cy="100.7" r="10.7" fill="none" stroke="#C9781F" stroke-width="1.5" opacity="0.85"/>
<circle cx="271.8" cy="100.7" r="8.4" fill="#1E6FC4" stroke="#fff" stroke-width="1.3"/>
<circle cx="281.0" cy="116.7" r="10.7" fill="none" stroke="#C9781F" stroke-width="1.5" opacity="0.85"/>
<circle cx="281.0" cy="116.7" r="8.4" fill="#1E6FC4" stroke="#fff" stroke-width="1.3"/>
<circle cx="281.2" cy="80.9" r="10.7" fill="none" stroke="#C9781F" stroke-width="1.5" opacity="0.85"/>
<circle cx="281.2" cy="80.9" r="8.4" fill="#1E6FC4" stroke="#fff" stroke-width="1.3"/>
<circle cx="280.4" cy="63.3" r="10.7" fill="none" stroke="#C9781F" stroke-width="1.5" opacity="0.85"/>
<circle cx="280.4" cy="63.3" r="8.4" fill="#1E6FC4" stroke="#fff" stroke-width="1.3"/>
<circle cx="290.4" cy="133.0" r="10.7" fill="none" stroke="#C9781F" stroke-width="1.5" opacity="0.85"/>
<circle cx="290.4" cy="133.0" r="8.4" fill="#1E6FC4" stroke="#fff" stroke-width="1.3"/>
<circle cx="290.5" cy="97.6" r="10.7" fill="none" stroke="#C9781F" stroke-width="1.5" opacity="0.85"/>
<circle cx="290.5" cy="97.6" r="8.4" fill="#C4342C" stroke="#fff" stroke-width="1.3"/>
<circle cx="300.0" cy="150.0" r="10.7" fill="none" stroke="#C9781F" stroke-width="1.5" opacity="0.85"/>
<circle cx="300.0" cy="150.0" r="8.4" fill="#C4342C" stroke="#fff" stroke-width="1.3"/>
<circle cx="300.0" cy="114.8" r="10.7" fill="none" stroke="#C9781F" stroke-width="1.5" opacity="0.85"/>
<circle cx="300.0" cy="114.8" r="8.4" fill="#C4342C" stroke="#fff" stroke-width="1.3"/>
<circle cx="300.0" cy="79.6" r="10.7" fill="none" stroke="#C9781F" stroke-width="1.5" opacity="0.85"/>
<circle cx="300.0" cy="79.6" r="8.4" fill="#C4342C" stroke="#fff" stroke-width="1.3"/>
<circle cx="300.0" cy="62.0" r="10.7" fill="none" stroke="#C9781F" stroke-width="1.5" opacity="0.85"/>
<circle cx="300.0" cy="62.0" r="8.4" fill="#C4342C" stroke="#fff" stroke-width="1.3"/>
<circle cx="309.5" cy="97.6" r="10.7" fill="none" stroke="#C9781F" stroke-width="1.5" opacity="0.85"/>
<circle cx="309.5" cy="97.6" r="8.4" fill="#C4342C" stroke="#fff" stroke-width="1.3"/>
<circle cx="309.6" cy="133.0" r="10.7" fill="none" stroke="#C9781F" stroke-width="1.5" opacity="0.85"/>
<circle cx="309.6" cy="133.0" r="8.4" fill="#C4342C" stroke="#fff" stroke-width="1.3"/>
<circle cx="319.6" cy="63.3" r="10.7" fill="none" stroke="#C9781F" stroke-width="1.5" opacity="0.85"/>
<circle cx="319.6" cy="63.3" r="8.4" fill="#C4342C" stroke="#fff" stroke-width="1.3"/>
<circle cx="318.8" cy="80.9" r="10.7" fill="none" stroke="#C9781F" stroke-width="1.5" opacity="0.85"/>
<circle cx="318.8" cy="80.9" r="8.4" fill="#C4342C" stroke="#fff" stroke-width="1.3"/>
<circle cx="319.0" cy="116.7" r="10.7" fill="none" stroke="#C9781F" stroke-width="1.5" opacity="0.85"/>
<circle cx="319.0" cy="116.7" r="8.4" fill="#C4342C" stroke="#fff" stroke-width="1.3"/>
<circle cx="328.2" cy="100.7" r="10.7" fill="none" stroke="#C9781F" stroke-width="1.5" opacity="0.85"/>
<circle cx="328.2" cy="100.7" r="8.4" fill="#C4342C" stroke="#fff" stroke-width="1.3"/>
<circle cx="338.8" cy="67.1" r="10.7" fill="none" stroke="#C9781F" stroke-width="1.5" opacity="0.85"/>
<circle cx="338.8" cy="67.1" r="8.4" fill="#C4342C" stroke="#fff" stroke-width="1.3"/>
<circle cx="337.3" cy="85.0" r="10.7" fill="none" stroke="#C9781F" stroke-width="1.5" opacity="0.85"/>
<circle cx="337.3" cy="85.0" r="8.4" fill="#C4342C" stroke="#fff" stroke-width="1.3"/>
<circle cx="319.2" cy="153.0" r="10.7" fill="none" stroke="#C9781F" stroke-width="1.5" opacity="0.85"/>
<circle cx="319.2" cy="153.0" r="8.4" fill="#C4342C" stroke="#fff" stroke-width="1.3"/>
<circle cx="328.2" cy="137.6" r="10.7" fill="none" stroke="#C9781F" stroke-width="1.5" opacity="0.85"/>
<circle cx="328.2" cy="137.6" r="8.4" fill="#C4342C" stroke="#fff" stroke-width="1.3"/>
<circle cx="337.2" cy="122.2" r="10.7" fill="none" stroke="#C9781F" stroke-width="1.5" opacity="0.85"/>
<circle cx="337.2" cy="122.2" r="8.4" fill="#C4342C" stroke="#fff" stroke-width="1.3"/>
<circle cx="357.4" cy="73.4" r="10.7" fill="none" stroke="#C9781F" stroke-width="1.5" opacity="0.85"/>
<circle cx="357.4" cy="73.4" r="8.4" fill="#C4342C" stroke="#fff" stroke-width="1.3"/>
<circle cx="346.1" cy="106.9" r="10.7" fill="none" stroke="#C9781F" stroke-width="1.5" opacity="0.85"/>
<circle cx="346.1" cy="106.9" r="8.4" fill="#C4342C" stroke="#fff" stroke-width="1.3"/>
<circle cx="355.0" cy="91.6" r="10.7" fill="none" stroke="#C9781F" stroke-width="1.5" opacity="0.85"/>
<circle cx="355.0" cy="91.6" r="8.4" fill="#C4342C" stroke="#fff" stroke-width="1.3"/>
<circle cx="375.0" cy="82.1" r="10.7" fill="none" stroke="#C9781F" stroke-width="1.5" opacity="0.85"/>
<circle cx="375.0" cy="82.1" r="8.4" fill="#C4342C" stroke="#fff" stroke-width="1.3"/>
<circle cx="371.6" cy="100.6" r="10.7" fill="none" stroke="#C9781F" stroke-width="1.5" opacity="0.85"/>
<circle cx="371.6" cy="100.6" r="8.4" fill="#C4342C" stroke="#fff" stroke-width="1.3"/>
<circle cx="362.8" cy="115.9" r="10.7" fill="none" stroke="#C9781F" stroke-width="1.5" opacity="0.85"/>
<circle cx="362.8" cy="115.9" r="8.4" fill="#C4342C" stroke="#fff" stroke-width="1.3"/>
<circle cx="354.0" cy="131.2" r="10.7" fill="none" stroke="#C9781F" stroke-width="1.5" opacity="0.85"/>
<circle cx="354.0" cy="131.2" r="8.4" fill="#C4342C" stroke="#fff" stroke-width="1.3"/>
<circle cx="345.2" cy="146.5" r="10.7" fill="none" stroke="#C9781F" stroke-width="1.5" opacity="0.85"/>
<circle cx="345.2" cy="146.5" r="8.4" fill="#C4342C" stroke="#fff" stroke-width="1.3"/>
<circle cx="336.4" cy="161.8" r="10.7" fill="none" stroke="#C9781F" stroke-width="1.5" opacity="0.85"/>
<circle cx="336.4" cy="161.8" r="8.4" fill="#C4342C" stroke="#fff" stroke-width="1.3"/>
<circle cx="391.3" cy="93.0" r="10.7" fill="none" stroke="#C9781F" stroke-width="1.5" opacity="0.85"/>
<circle cx="391.3" cy="93.0" r="8.4" fill="#C4342C" stroke="#fff" stroke-width="1.3"/>
<circle cx="386.7" cy="111.9" r="10.7" fill="none" stroke="#C9781F" stroke-width="1.5" opacity="0.85"/>
<circle cx="386.7" cy="111.9" r="8.4" fill="#C4342C" stroke="#fff" stroke-width="1.3"/>
<circle cx="377.8" cy="127.5" r="10.7" fill="none" stroke="#C9781F" stroke-width="1.5" opacity="0.85"/>
<circle cx="377.8" cy="127.5" r="8.4" fill="#C4342C" stroke="#fff" stroke-width="1.3"/>
<circle cx="368.7" cy="143.3" r="10.7" fill="none" stroke="#C9781F" stroke-width="1.5" opacity="0.85"/>
<circle cx="368.7" cy="143.3" r="8.4" fill="#C4342C" stroke="#fff" stroke-width="1.3"/>
<circle cx="406.1" cy="105.9" r="10.7" fill="none" stroke="#C9781F" stroke-width="1.5" opacity="0.85"/>
<circle cx="406.1" cy="105.9" r="8.4" fill="#C4342C" stroke="#fff" stroke-width="1.3"/>
<circle cx="359.6" cy="159.2" r="10.7" fill="none" stroke="#C9781F" stroke-width="1.5" opacity="0.85"/>
<circle cx="359.6" cy="159.2" r="8.4" fill="#C4342C" stroke="#fff" stroke-width="1.3"/>
<circle cx="400.1" cy="125.3" r="10.7" fill="none" stroke="#C9781F" stroke-width="1.5" opacity="0.85"/>
<circle cx="400.1" cy="125.3" r="8.4" fill="#C4342C" stroke="#fff" stroke-width="1.3"/>
<circle cx="390.6" cy="141.5" r="10.7" fill="none" stroke="#C9781F" stroke-width="1.5" opacity="0.85"/>
<circle cx="390.6" cy="141.5" r="8.4" fill="#C4342C" stroke="#fff" stroke-width="1.3"/>
<circle cx="419.0" cy="120.7" r="10.7" fill="none" stroke="#C9781F" stroke-width="1.5" opacity="0.85"/>
<circle cx="419.0" cy="120.7" r="8.4" fill="#C4342C" stroke="#fff" stroke-width="1.3"/>
<circle cx="350.2" cy="175.6" r="10.7" fill="none" stroke="#C9781F" stroke-width="1.5" opacity="0.85"/>
<circle cx="350.2" cy="175.6" r="8.4" fill="#C4342C" stroke="#fff" stroke-width="1.3"/>
<circle cx="380.8" cy="158.0" r="10.7" fill="none" stroke="#C9781F" stroke-width="1.5" opacity="0.85"/>
<circle cx="380.8" cy="158.0" r="8.4" fill="#C4342C" stroke="#fff" stroke-width="1.3"/>
<circle cx="411.4" cy="140.4" r="10.7" fill="none" stroke="#C9781F" stroke-width="1.5" opacity="0.85"/>
<circle cx="411.4" cy="140.4" r="8.4" fill="#C4342C" stroke="#fff" stroke-width="1.3"/>
<circle cx="429.9" cy="137.0" r="10.7" fill="none" stroke="#C9781F" stroke-width="1.5" opacity="0.85"/>
<circle cx="429.9" cy="137.0" r="8.4" fill="#C4342C" stroke="#fff" stroke-width="1.3"/>
<circle cx="401.0" cy="157.4" r="10.7" fill="none" stroke="#C9781F" stroke-width="1.5" opacity="0.85"/>
<circle cx="401.0" cy="157.4" r="8.4" fill="#C4342C" stroke="#fff" stroke-width="1.3"/>
<circle cx="370.5" cy="175.0" r="10.7" fill="none" stroke="#C9781F" stroke-width="1.5" opacity="0.85"/>
<circle cx="370.5" cy="175.0" r="8.4" fill="#C4342C" stroke="#fff" stroke-width="1.3"/>
<circle cx="420.4" cy="157.0" r="10.7" fill="none" stroke="#C9781F" stroke-width="1.5" opacity="0.85"/>
<circle cx="420.4" cy="157.0" r="8.4" fill="#C4342C" stroke="#fff" stroke-width="1.3"/>
<circle cx="389.8" cy="174.8" r="10.7" fill="none" stroke="#C9781F" stroke-width="1.5" opacity="0.85"/>
<circle cx="389.8" cy="174.8" r="8.4" fill="#C4342C" stroke="#fff" stroke-width="1.3"/>
<circle cx="438.6" cy="154.6" r="10.7" fill="none" stroke="#C9781F" stroke-width="1.5" opacity="0.85"/>
<circle cx="438.6" cy="154.6" r="8.4" fill="#C4342C" stroke="#fff" stroke-width="1.3"/>
<circle cx="408.6" cy="174.7" r="10.7" fill="none" stroke="#C9781F" stroke-width="1.5" opacity="0.85"/>
<circle cx="408.6" cy="174.7" r="8.4" fill="#C4342C" stroke="#fff" stroke-width="1.3"/>
<circle cx="359.0" cy="192.8" r="10.7" fill="none" stroke="#C9781F" stroke-width="1.5" opacity="0.85"/>
<circle cx="359.0" cy="192.8" r="8.4" fill="#C4342C" stroke="#fff" stroke-width="1.3"/>
<circle cx="427.0" cy="174.7" r="10.7" fill="none" stroke="#C9781F" stroke-width="1.5" opacity="0.85"/>
<circle cx="427.0" cy="174.7" r="8.4" fill="#C4342C" stroke="#fff" stroke-width="1.3"/>
<circle cx="444.9" cy="173.2" r="10.7" fill="none" stroke="#C9781F" stroke-width="1.5" opacity="0.85"/>
<circle cx="444.9" cy="173.2" r="8.4" fill="#C4342C" stroke="#fff" stroke-width="1.3"/>
<circle cx="377.3" cy="193.0" r="10.7" fill="none" stroke="#C9781F" stroke-width="1.5" opacity="0.85"/>
<circle cx="377.3" cy="193.0" r="8.4" fill="#C4342C" stroke="#fff" stroke-width="1.3"/>
<circle cx="395.3" cy="193.0" r="10.7" fill="none" stroke="#C9781F" stroke-width="1.5" opacity="0.85"/>
<circle cx="395.3" cy="193.0" r="8.4" fill="#C4342C" stroke="#fff" stroke-width="1.3"/>
<circle cx="413.2" cy="193.1" r="10.7" fill="none" stroke="#C9781F" stroke-width="1.5" opacity="0.85"/>
<circle cx="413.2" cy="193.1" r="8.4" fill="#C4342C" stroke="#fff" stroke-width="1.3"/>
<circle cx="431.1" cy="193.2" r="10.7" fill="none" stroke="#C9781F" stroke-width="1.5" opacity="0.85"/>
<circle cx="431.1" cy="193.2" r="8.4" fill="#C4342C" stroke="#fff" stroke-width="1.3"/>
<circle cx="448.7" cy="192.4" r="10.7" fill="none" stroke="#C9781F" stroke-width="1.5" opacity="0.85"/>
<circle cx="448.7" cy="192.4" r="8.4" fill="#C4342C" stroke="#fff" stroke-width="1.3"/>
<circle cx="362.0" cy="212.0" r="10.7" fill="none" stroke="#C9781F" stroke-width="1.5" opacity="0.85"/>
<circle cx="362.0" cy="212.0" r="8.4" fill="#C4342C" stroke="#fff" stroke-width="1.3"/>
<circle cx="379.6" cy="212.0" r="10.7" fill="none" stroke="#C9781F" stroke-width="1.5" opacity="0.85"/>
<circle cx="379.6" cy="212.0" r="8.4" fill="#C4342C" stroke="#fff" stroke-width="1.3"/>
<circle cx="397.2" cy="212.0" r="10.7" fill="none" stroke="#C9781F" stroke-width="1.5" opacity="0.85"/>
<circle cx="397.2" cy="212.0" r="8.4" fill="#C4342C" stroke="#fff" stroke-width="1.3"/>
<circle cx="414.8" cy="212.0" r="10.7" fill="none" stroke="#C9781F" stroke-width="1.5" opacity="0.85"/>
<circle cx="414.8" cy="212.0" r="8.4" fill="#C4342C" stroke="#fff" stroke-width="1.3"/>
<circle cx="432.4" cy="212.0" r="10.7" fill="none" stroke="#C9781F" stroke-width="1.5" opacity="0.85"/>
<circle cx="432.4" cy="212.0" r="8.4" fill="#C4342C" stroke="#fff" stroke-width="1.3"/>
<circle cx="450.0" cy="212.0" r="10.7" fill="none" stroke="#C9781F" stroke-width="1.5" opacity="0.85"/>
<circle cx="450.0" cy="212.0" r="8.4" fill="#C4342C" stroke="#fff" stroke-width="1.3"/>
  <text x="300" y="244" text-anchor="middle" font-size="14" fill="#5F6875"><tspan fill="#1E6FC4" font-weight="800">52 Democrats</tspan>  &#183;  <tspan fill="#C4342C" font-weight="800">58 Republicans</tspan></text>
  <text x="300" y="264" text-anchor="middle" font-family="'IBM Plex Mono',monospace" font-size="10" letter-spacing="1.5" fill="#C4342C">REPUBLICAN MAJORITY</text>
  <text x="830" y="24" text-anchor="middle" font-size="21" font-weight="800" fill="#0C1E33">Michigan Senate</text>
  <text x="830" y="44" text-anchor="middle" font-family="'IBM Plex Mono',monospace" font-size="10.5" letter-spacing="1.5" fill="#5F6875">38 SEATS &#183; EVERY SEAT UP IN 2026</text>
  <circle cx="770.0" cy="212.0" r="10.7" fill="none" stroke="#C9781F" stroke-width="1.5" opacity="0.85"/>
<circle cx="770.0" cy="212.0" r="8.4" fill="#1E6FC4" stroke="#fff" stroke-width="1.3"/>
<circle cx="743.3" cy="212.0" r="10.7" fill="none" stroke="#C9781F" stroke-width="1.5" opacity="0.85"/>
<circle cx="743.3" cy="212.0" r="8.4" fill="#1E6FC4" stroke="#fff" stroke-width="1.3"/>
<circle cx="716.7" cy="212.0" r="10.7" fill="none" stroke="#C9781F" stroke-width="1.5" opacity="0.85"/>
<circle cx="716.7" cy="212.0" r="8.4" fill="#1E6FC4" stroke="#fff" stroke-width="1.3"/>
<circle cx="690.0" cy="212.0" r="10.7" fill="none" stroke="#C9781F" stroke-width="1.5" opacity="0.85"/>
<circle cx="690.0" cy="212.0" r="8.4" fill="#1E6FC4" stroke="#fff" stroke-width="1.3"/>
<circle cx="694.8" cy="175.8" r="10.7" fill="none" stroke="#C9781F" stroke-width="1.5" opacity="0.85"/>
<circle cx="694.8" cy="175.8" r="8.4" fill="#1E6FC4" stroke="#fff" stroke-width="1.3"/>
<circle cx="722.2" cy="177.0" r="10.7" fill="none" stroke="#C9781F" stroke-width="1.5" opacity="0.85"/>
<circle cx="722.2" cy="177.0" r="8.4" fill="#1E6FC4" stroke="#fff" stroke-width="1.3"/>
<circle cx="751.9" cy="174.4" r="10.7" fill="none" stroke="#C9781F" stroke-width="1.5" opacity="0.85"/>
<circle cx="751.9" cy="174.4" r="8.4" fill="#1E6FC4" stroke="#fff" stroke-width="1.3"/>
<circle cx="708.8" cy="142.0" r="10.7" fill="none" stroke="#C9781F" stroke-width="1.5" opacity="0.85"/>
<circle cx="708.8" cy="142.0" r="8.4" fill="#1E6FC4" stroke="#fff" stroke-width="1.3"/>
<circle cx="781.5" cy="176.7" r="10.7" fill="none" stroke="#C9781F" stroke-width="1.5" opacity="0.85"/>
<circle cx="781.5" cy="176.7" r="8.4" fill="#1E6FC4" stroke="#fff" stroke-width="1.3"/>
<circle cx="738.3" cy="145.4" r="10.7" fill="none" stroke="#C9781F" stroke-width="1.5" opacity="0.85"/>
<circle cx="738.3" cy="145.4" r="8.4" fill="#1E6FC4" stroke="#fff" stroke-width="1.3"/>
<circle cx="731.0" cy="113.0" r="10.7" fill="none" stroke="#C9781F" stroke-width="1.5" opacity="0.85"/>
<circle cx="731.0" cy="113.0" r="8.4" fill="#1E6FC4" stroke="#fff" stroke-width="1.3"/>
<circle cx="776.0" cy="144.2" r="10.7" fill="none" stroke="#C9781F" stroke-width="1.5" opacity="0.85"/>
<circle cx="776.0" cy="144.2" r="8.4" fill="#1E6FC4" stroke="#fff" stroke-width="1.3"/>
<circle cx="763.4" cy="120.3" r="10.7" fill="none" stroke="#C9781F" stroke-width="1.5" opacity="0.85"/>
<circle cx="763.4" cy="120.3" r="8.4" fill="#1E6FC4" stroke="#fff" stroke-width="1.3"/>
<circle cx="760.0" cy="90.8" r="10.7" fill="none" stroke="#C9781F" stroke-width="1.5" opacity="0.85"/>
<circle cx="760.0" cy="90.8" r="8.4" fill="#1E6FC4" stroke="#fff" stroke-width="1.3"/>
<circle cx="811.5" cy="154.9" r="10.7" fill="none" stroke="#C9781F" stroke-width="1.5" opacity="0.85"/>
<circle cx="811.5" cy="154.9" r="8.4" fill="#1E6FC4" stroke="#fff" stroke-width="1.3"/>
<circle cx="795.0" cy="104.2" r="10.7" fill="none" stroke="#C9781F" stroke-width="1.5" opacity="0.85"/>
<circle cx="795.0" cy="104.2" r="8.4" fill="#1E6FC4" stroke="#fff" stroke-width="1.3"/>
<circle cx="793.8" cy="76.8" r="10.7" fill="none" stroke="#C9781F" stroke-width="1.5" opacity="0.85"/>
<circle cx="793.8" cy="76.8" r="8.4" fill="#1E6FC4" stroke="#fff" stroke-width="1.3"/>
<circle cx="810.7" cy="127.5" r="10.7" fill="none" stroke="#C9781F" stroke-width="1.5" opacity="0.85"/>
<circle cx="810.7" cy="127.5" r="8.4" fill="#1E6FC4" stroke="#fff" stroke-width="1.3"/>
<circle cx="830.0" cy="98.7" r="10.7" fill="none" stroke="#C9781F" stroke-width="1.5" opacity="0.85"/>
<circle cx="830.0" cy="98.7" r="8.4" fill="#1E6FC4" stroke="#fff" stroke-width="1.3"/>
<circle cx="830.0" cy="72.0" r="10.7" fill="none" stroke="#C9781F" stroke-width="1.5" opacity="0.85"/>
<circle cx="830.0" cy="72.0" r="8.4" fill="#B8C2CE" stroke="#fff" stroke-width="1.3"/>
<circle cx="849.3" cy="127.5" r="10.7" fill="none" stroke="#C9781F" stroke-width="1.5" opacity="0.85"/>
<circle cx="849.3" cy="127.5" r="8.4" fill="#C4342C" stroke="#fff" stroke-width="1.3"/>
<circle cx="866.2" cy="76.8" r="10.7" fill="none" stroke="#C9781F" stroke-width="1.5" opacity="0.85"/>
<circle cx="866.2" cy="76.8" r="8.4" fill="#C4342C" stroke="#fff" stroke-width="1.3"/>
<circle cx="848.5" cy="154.9" r="10.7" fill="none" stroke="#C9781F" stroke-width="1.5" opacity="0.85"/>
<circle cx="848.5" cy="154.9" r="8.4" fill="#C4342C" stroke="#fff" stroke-width="1.3"/>
<circle cx="865.0" cy="104.2" r="10.7" fill="none" stroke="#C9781F" stroke-width="1.5" opacity="0.85"/>
<circle cx="865.0" cy="104.2" r="8.4" fill="#C4342C" stroke="#fff" stroke-width="1.3"/>
<circle cx="900.0" cy="90.8" r="10.7" fill="none" stroke="#C9781F" stroke-width="1.5" opacity="0.85"/>
<circle cx="900.0" cy="90.8" r="8.4" fill="#C4342C" stroke="#fff" stroke-width="1.3"/>
<circle cx="896.6" cy="120.3" r="10.7" fill="none" stroke="#C9781F" stroke-width="1.5" opacity="0.85"/>
<circle cx="896.6" cy="120.3" r="8.4" fill="#C4342C" stroke="#fff" stroke-width="1.3"/>
<circle cx="884.0" cy="144.2" r="10.7" fill="none" stroke="#C9781F" stroke-width="1.5" opacity="0.85"/>
<circle cx="884.0" cy="144.2" r="8.4" fill="#C4342C" stroke="#fff" stroke-width="1.3"/>
<circle cx="929.0" cy="113.0" r="10.7" fill="none" stroke="#C9781F" stroke-width="1.5" opacity="0.85"/>
<circle cx="929.0" cy="113.0" r="8.4" fill="#C4342C" stroke="#fff" stroke-width="1.3"/>
<circle cx="878.5" cy="176.7" r="10.7" fill="none" stroke="#C9781F" stroke-width="1.5" opacity="0.85"/>
<circle cx="878.5" cy="176.7" r="8.4" fill="#C4342C" stroke="#fff" stroke-width="1.3"/>
<circle cx="921.7" cy="145.4" r="10.7" fill="none" stroke="#C9781F" stroke-width="1.5" opacity="0.85"/>
<circle cx="921.7" cy="145.4" r="8.4" fill="#C4342C" stroke="#fff" stroke-width="1.3"/>
<circle cx="951.2" cy="142.0" r="10.7" fill="none" stroke="#C9781F" stroke-width="1.5" opacity="0.85"/>
<circle cx="951.2" cy="142.0" r="8.4" fill="#C4342C" stroke="#fff" stroke-width="1.3"/>
<circle cx="908.1" cy="174.4" r="10.7" fill="none" stroke="#C9781F" stroke-width="1.5" opacity="0.85"/>
<circle cx="908.1" cy="174.4" r="8.4" fill="#C4342C" stroke="#fff" stroke-width="1.3"/>
<circle cx="937.8" cy="177.0" r="10.7" fill="none" stroke="#C9781F" stroke-width="1.5" opacity="0.85"/>
<circle cx="937.8" cy="177.0" r="8.4" fill="#C4342C" stroke="#fff" stroke-width="1.3"/>
<circle cx="965.2" cy="175.8" r="10.7" fill="none" stroke="#C9781F" stroke-width="1.5" opacity="0.85"/>
<circle cx="965.2" cy="175.8" r="8.4" fill="#C4342C" stroke="#fff" stroke-width="1.3"/>
<circle cx="890.0" cy="212.0" r="10.7" fill="none" stroke="#C9781F" stroke-width="1.5" opacity="0.85"/>
<circle cx="890.0" cy="212.0" r="8.4" fill="#C4342C" stroke="#fff" stroke-width="1.3"/>
<circle cx="916.7" cy="212.0" r="10.7" fill="none" stroke="#C9781F" stroke-width="1.5" opacity="0.85"/>
<circle cx="916.7" cy="212.0" r="8.4" fill="#C4342C" stroke="#fff" stroke-width="1.3"/>
<circle cx="943.3" cy="212.0" r="10.7" fill="none" stroke="#C9781F" stroke-width="1.5" opacity="0.85"/>
<circle cx="943.3" cy="212.0" r="8.4" fill="#C4342C" stroke="#fff" stroke-width="1.3"/>
<circle cx="970.0" cy="212.0" r="10.7" fill="none" stroke="#C9781F" stroke-width="1.5" opacity="0.85"/>
<circle cx="970.0" cy="212.0" r="8.4" fill="#C4342C" stroke="#fff" stroke-width="1.3"/>
  <text x="830" y="244" text-anchor="middle" font-size="14" fill="#5F6875"><tspan fill="#1E6FC4" font-weight="800">19 Democrats</tspan> &#183; <tspan fill="#C4342C" font-weight="800">18 Republicans</tspan> &#183; <tspan fill="#8A94A2">1 vacant</tspan></text>
  <text x="830" y="264" text-anchor="middle" font-family="'IBM Plex Mono',monospace" font-size="10" letter-spacing="1.5" fill="#1E6FC4">DEMOCRATIC MAJORITY</text>
  <g transform="translate(560,298)" font-size="12.5" fill="#14212E" text-anchor="start">
    <circle cx="-232" cy="-4" r="7" fill="#1E6FC4"/><text x="-220" y="0">Democratic</text>
    <circle cx="-118" cy="-4" r="7" fill="#C4342C"/><text x="-106" y="0">Republican</text>
    <circle cx="0" cy="-4" r="7" fill="#fff" stroke="#C9781F" stroke-width="1.6"/><text x="12" y="0">Up for election in 2026</text>
  </g>
</svg>