<svg xmlns="http://www.w3.org/2000/svg" viewBox="0 0 1200 720" role="img" aria-label="Michigan lower peninsula map preview">
<defs>
<linearGradient id="bg" x1="0" y1="0" x2="0" y2="1"><stop offset="0%" stop-color="#dfe8f2"/><stop offset="100%" stop-color="#c8d6e6"/></linearGradient>
<filter id="soft" x="-20%" y="-20%" width="140%" height="140%"><feGaussianBlur stdDeviation="1.2"/></filter>
</defs>
<rect width="1200" height="720" fill="url(#bg)"/>
<path d="M0,0 L220,0 L180,720 L0,720 Z" fill="#b8cfe0" opacity=".55"/>
<path d="M1020,0 L1200,0 L1200,720 L980,720 Z" fill="#b8cfe0" opacity=".55"/>
<g fill="#e8eef4" stroke="#8fa3b8" stroke-width="1.1" stroke-linejoin="round">
<path d="M923.9,155.5 L923.9,156.4 L923.9,156.4 L923.9,156.4 L924.5,157.1 L925.5,158.1 L925.5,158.2 L925.8,158.4 L925.8,158.4 L925.9,158.4 L926.8,159.0 L927.2,159.2 L928.7,160.2 L928.9,161.2 L929.2,162.5 L929.9,166.1 L929.9,166.1 L929.9,166.6 L929.9,166.8 L929.8,168.4 L929.6,171.7 L929.6,171.7 L929.3,172.2 L929.3,172.3 L929.3,172.4 L929.4,173.0 L929.4,173.4 L929.5,173.6 L929.5,173.8 L929.7,174.2 L931.0,176.4 L931.0,176.5 L931.6,177.0 L932.4,177.6 L932.6,177.7 L932.8,177.8 L934.2,178.5 L934.8,178.8 L934.9,178.9 L935.1,179.0 L934.8,180.5 L934.7,180.9 L934.7,181.2 L934.6,181.2 L934.6,181.4 L934.6,181.5 L934.6,181.5 L934.5,182.2 L934.3,183.0 L934.1,183.3 L933.8,184.1 L933.7,184.1 L932.1,187.3 L931.9,187.7 L931.9,187.8 L931.8,188.0 L931.7,188.1 L931.3,188.9 L929.9,190.1 L927.2,192.6 L927.1,192.7 L926.7,193.5 L926.5,193.8 L926.5,193.8 L925.5,196.0 L925.4,196.1 L925.4,196.1 L925.3,197.1 L925.3,197.2 L925.3,197.6 L925.2,198.0 L925.2,198.3 L925.2,198.6 L925.5,202.0 L925.5,202.1 L925.6,202.3 L925.6,202.6 L925.6,202.6 L925.6,202.8 L925.6,202.9 L925.6,203.0 L925.6,203.3 L925.7,203.3 L926.7,205.7 L926.7,205.8 L926.8,205.9 L926.8,205.9 L926.9,207.3 L926.6,207.7 L926.5,208.0 L926.4,208.1 L926.2,208.4 L926.1,208.6 L924.6,211.3 L924.6,211.4 L924.6,211.4 L924.6,211.8 L791.1,212.3 L790.6,155.8 L923.9,155.5 Z"/>
<path d="M345.7,495.2 L362.1,495.2 L401.4,495.2 L401.9,551.5 L350.0,551.6 L230.3,551.9 L233.2,547.9 L236.0,542.0 L237.9,533.1 L238.1,532.3 L239.4,528.2 L239.4,528.2 L239.5,528.0 L239.5,527.9 L240.3,526.5 L241.1,525.2 L241.5,523.7 L241.6,523.6 L241.6,523.4 L240.8,516.4 L241.4,515.2 L243.9,512.0 L245.6,507.5 L246.1,503.1 L245.7,496.0 L245.6,495.3 L345.7,495.2 Z"/>
<path d="M908.3,98.8 L909.1,99.4 L909.7,99.5 L912.7,102.9 L912.9,104.5 L913.9,105.4 L914.8,106.0 L917.4,106.3 L920.0,108.6 L925.1,109.4 L925.1,109.8 L924.3,110.1 L924.5,111.5 L927.0,116.4 L929.3,117.8 L931.0,121.3 L930.9,122.3 L933.5,125.0 L934.2,125.2 L935.6,126.3 L936.9,128.1 L935.5,128.7 L931.7,128.2 L928.3,127.2 L919.4,125.7 L915.3,124.3 L913.0,122.4 L905.5,121.1 L897.4,123.1 L895.5,124.2 L892.8,126.8 L892.6,127.3 L894.5,129.8 L897.1,130.6 L898.0,131.2 L896.9,132.5 L896.2,132.5 L893.6,134.1 L895.1,140.3 L896.2,142.1 L897.6,143.4 L899.4,144.4 L904.3,145.7 L905.6,147.7 L906.8,148.3 L916.4,151.0 L924.0,151.9 L923.9,155.5 L790.6,155.8 L792.3,99.7 L908.3,98.8 Z"/>
<path d="M451.4,163.0 L425.7,155.3 L429.5,151.7 L430.2,149.6 L434.1,146.8 L436.6,143.7 L440.7,132.7 L439.9,129.5 L440.1,125.0 L440.8,123.4 L443.5,121.3 L443.3,113.5 L442.0,112.0 L441.0,109.3 L440.2,103.1 L438.7,101.7 L438.5,98.8 L477.2,99.1 L477.0,113.4 L563.0,113.5 L565.4,155.6 L461.0,155.3 L451.4,163.0 Z"/>
<path d="M866.6,268.4 L866.5,268.4 L866.4,268.8 L866.3,269.0 L866.0,269.7 L865.9,270.5 L865.9,271.5 L865.8,271.7 L865.8,271.7 L865.7,274.0 L865.7,274.1 L865.7,274.4 L865.8,274.8 L865.9,275.3 L866.0,275.6 L864.7,278.5 L861.2,280.9 L860.4,282.1 L860.6,283.7 L862.1,285.8 L858.1,286.1 L853.4,285.9 L846.6,286.5 L839.7,289.1 L837.7,291.6 L839.6,295.9 L832.8,296.1 L824.6,296.4 L823.9,296.8 L821.5,297.2 L820.1,297.4 L820.1,297.4 L820.0,297.4 L819.9,297.4 L816.3,297.4 L814.3,297.4 L804.8,296.8 L804.7,296.8 L804.6,296.8 L804.6,296.8 L804.6,296.8 L800.1,298.0 L799.3,298.3 L799.2,298.4 L799.2,298.4 L798.8,298.6 L798.5,298.7 L798.4,298.9 L798.4,299.1 L798.4,299.1 L798.3,299.1 L798.3,299.2 L798.2,299.4 L798.2,299.4 L798.2,299.5 L797.7,299.8 L797.7,299.8 L797.5,299.9 L797.5,299.9 L797.4,299.9 L797.4,300.0 L797.4,300.0 L795.1,301.4 L795.1,301.4 L793.3,301.6 L793.2,301.6 L792.6,302.2 L792.6,302.3 L791.4,303.7 L791.3,303.7 L791.3,303.7 L790.2,305.6 L790.0,307.5 L786.2,308.3 L785.3,309.5 L753.9,309.4 L753.8,295.5 L725.3,295.5 L725.4,268.7 L791.7,268.7 L866.6,268.4 Z"/>
<path d="M512.1,494.7 L512.7,551.5 L459.3,551.8 L401.9,551.5 L401.4,495.2 L456.8,494.9 L512.1,494.7 Z"/>
<path d="M835.2,379.7 L807.3,379.7 L784.1,372.6 L752.4,372.3 L752.7,365.3 L724.9,365.1 L725.1,323.3 L725.3,295.5 L753.8,295.5 L753.9,309.4 L785.3,309.5 L784.0,311.4 L783.7,318.3 L781.7,329.5 L781.0,331.2 L777.2,334.0 L775.0,333.8 L774.8,334.1 L775.1,335.5 L778.7,341.3 L781.0,343.5 L785.7,348.2 L788.6,349.6 L799.2,352.7 L808.0,353.0 L809.8,353.3 L816.4,355.1 L818.3,355.3 L818.5,354.3 L828.8,357.0 L834.1,360.4 L835.1,360.5 L835.0,360.8 L835.2,379.7 Z"/>
<path d="M239.8,210.8 L242.1,205.8 L242.8,202.9 L241.7,198.4 L240.2,196.0 L235.0,189.7 L233.8,187.2 L234.3,183.4 L234.7,182.6 L236.3,181.4 L240.0,180.3 L254.2,177.9 L254.9,177.6 L256.9,176.7 L257.0,176.7 L265.8,176.7 L265.9,176.7 L266.2,176.7 L266.3,176.7 L269.2,176.3 L269.7,176.2 L269.9,176.1 L273.3,174.7 L273.7,174.5 L276.3,171.8 L276.5,171.4 L276.6,171.3 L276.6,171.3 L277.1,170.4 L277.4,169.9 L277.5,168.5 L338.1,169.1 L337.4,211.6 L239.8,210.8 Z"/>
<path d="M158.0,629.1 L162.0,623.0 L162.1,622.9 L162.1,622.8 L162.2,622.7 L162.3,622.6 L162.7,621.9 L163.9,620.0 L163.9,620.0 L165.6,618.2 L165.6,618.2 L166.6,617.2 L166.7,617.1 L167.4,616.3 L167.5,616.2 L168.7,614.9 L169.2,614.4 L169.5,614.1 L169.5,614.1 L169.6,613.9 L175.1,608.1 L176.9,606.3 L179.5,602.9 L180.7,600.8 L182.1,599.9 L185.0,598.2 L185.1,598.2 L185.4,597.9 L185.4,597.9 L185.6,597.8 L185.7,597.8 L185.7,597.7 L191.1,594.0 L191.4,593.8 L191.8,593.6 L192.0,593.4 L199.7,588.1 L200.2,587.7 L200.9,587.2 L201.0,587.1 L201.2,586.9 L201.9,586.5 L202.0,586.3 L202.2,586.2 L202.2,586.2 L203.8,584.9 L204.2,584.7 L204.5,584.4 L204.5,584.4 L205.0,583.9 L205.3,583.7 L205.4,583.6 L208.9,580.5 L242.1,580.5 L242.3,608.4 L241.5,659.0 L232.3,659.0 L176.8,659.1 L172.7,659.1 L171.5,659.1 L144.3,659.1 L144.0,659.1 L119.3,659.0 L118.9,659.0 L106.6,659.0 L106.6,659.0 L106.4,659.0 L105.7,659.0 L101.2,659.0 L100.9,659.0 L101.2,658.9 L106.2,657.1 L106.3,657.0 L108.0,656.4 L108.0,656.4 L108.2,656.3 L111.9,655.0 L112.1,655.0 L112.3,654.9 L112.6,654.8 L118.2,652.6 L121.9,651.1 L126.2,649.4 L126.6,649.2 L130.8,647.2 L135.0,645.3 L135.1,645.2 L142.2,641.2 L142.5,641.0 L143.1,640.7 L143.4,640.5 L143.4,640.5 L146.7,638.6 L146.8,638.6 L148.1,637.8 L148.1,637.8 L148.7,637.5 L149.1,637.3 L149.7,636.8 L149.7,636.8 L149.9,636.6 L150.8,635.9 L150.9,635.9 L151.0,635.8 L151.1,635.7 L153.6,633.8 L154.2,633.3 L154.5,633.0 L156.4,631.0 L156.6,630.8 L156.6,630.8 L156.8,630.5 L157.1,630.3 L157.2,630.1 L157.7,629.6 L157.9,629.4 L158.0,629.1 Z"/>
<path d="M468.5,608.3 L570.3,608.2 L570.6,659.0 L570.6,659.0 L545.4,659.1 L538.7,659.1 L538.6,659.1 L536.2,659.1 L535.9,659.1 L520.6,659.0 L520.3,659.0 L502.0,659.0 L500.6,659.0 L489.1,659.1 L483.3,659.0 L483.3,659.0 L474.8,659.0 L465.6,659.0 L465.4,659.0 L465.2,659.0 L460.9,659.0 L460.9,659.0 L460.6,608.4 L468.5,608.3 Z"/>
<path d="M468.5,608.3 L460.6,608.4 L459.8,580.0 L459.2,552.3 L459.3,551.8 L512.7,551.5 L595.7,551.5 L597.8,608.6 L570.3,608.2 L468.5,608.3 Z"/>
<path d="M242.3,608.4 L350.3,608.7 L351.0,652.7 L343.7,659.2 L343.6,659.2 L324.7,659.1 L324.0,659.1 L320.8,659.1 L300.5,659.0 L300.5,659.0 L296.7,659.0 L293.8,659.0 L279.9,659.0 L265.3,658.9 L265.2,658.9 L264.6,658.9 L243.5,659.0 L241.5,659.0 L241.5,659.0 L242.3,608.4 Z"/>
<path d="M591.9,99.7 L591.8,113.8 L563.0,113.5 L477.0,113.4 L477.2,99.1 L438.5,98.8 L438.3,94.3 L442.2,88.5 L446.0,86.5 L450.8,84.7 L453.4,83.2 L457.3,81.6 L460.3,81.1 L461.5,81.5 L465.2,81.2 L467.8,80.6 L469.6,79.6 L470.3,78.7 L474.2,77.4 L480.3,74.5 L483.3,73.9 L486.7,73.9 L495.8,72.3 L507.0,72.9 L526.8,87.2 L592.3,85.5 L591.9,99.5 L591.9,99.7 Z"/>
<path d="M592.4,4.5 L593.8,4.6 L595.6,6.1 L596.2,8.0 L604.2,9.6 L604.8,10.8 L613.0,12.3 L622.4,15.2 L629.7,17.1 L633.9,18.4 L634.5,19.0 L637.8,20.3 L637.8,20.3 L637.8,20.3 L656.0,26.5 L660.5,26.1 L662.1,24.6 L664.0,23.8 L667.3,23.7 L670.4,24.7 L676.0,26.0 L687.0,24.5 L696.4,26.3 L700.9,27.7 L713.9,29.4 L716.5,30.6 L705.2,30.8 L706.5,100.2 L678.3,100.2 L591.9,99.7 L591.9,99.5 L592.3,85.5 L592.4,4.5 Z"/>
<path d="M621.6,268.9 L621.6,269.2 L622.1,325.0 L508.7,325.3 L509.1,268.3 L564.4,268.8 L621.6,268.9 Z"/>
<path d="M678.0,438.3 L678.5,464.8 L679.0,493.9 L679.0,494.9 L622.8,494.9 L567.8,494.8 L567.8,438.2 L678.0,438.3 Z"/>
<path d="M677.1,156.1 L677.4,212.6 L564.5,212.0 L565.4,155.6 L677.1,156.1 Z"/>
<path d="M623.4,551.4 L595.7,551.5 L512.7,551.5 L512.1,494.7 L567.8,494.8 L622.8,494.9 L623.4,551.4 Z"/>
<path d="M507.0,72.9 L512.2,73.1 L513.8,73.2 L514.4,73.2 L514.6,73.2 L515.2,73.3 L516.7,73.3 L518.6,73.6 L518.8,73.7 L519.3,73.7 L519.3,73.7 L519.4,73.8 L521.8,73.8 L524.3,72.9 L529.9,72.3 L535.3,71.8 L539.1,71.4 L549.3,68.6 L550.1,67.0 L550.0,65.9 L549.2,64.6 L547.9,63.9 L535.1,62.8 L535.0,62.8 L534.5,62.8 L534.1,62.7 L534.0,62.7 L533.9,62.7 L531.9,63.0 L531.7,63.4 L532.1,63.6 L532.5,63.7 L532.6,63.8 L533.1,64.0 L533.3,64.1 L534.6,64.2 L534.9,64.2 L534.6,64.5 L530.9,63.7 L521.3,61.8 L520.7,61.7 L520.1,61.6 L519.9,61.5 L518.5,60.8 L517.7,60.3 L517.6,60.3 L517.1,60.0 L513.2,57.9 L513.0,57.7 L508.9,55.1 L508.8,55.0 L506.7,52.0 L505.1,49.6 L503.9,47.7 L503.8,47.7 L503.5,47.0 L503.5,46.9 L502.4,44.8 L502.3,44.5 L502.3,44.4 L502.0,42.7 L501.9,42.4 L501.5,40.3 L501.4,40.1 L501.4,40.1 L501.4,40.0 L501.6,39.4 L501.6,39.2 L501.7,39.0 L501.7,39.0 L501.9,38.8 L503.1,37.4 L503.1,37.4 L503.2,37.3 L503.3,37.3 L504.2,36.8 L504.4,36.7 L504.6,36.6 L504.8,36.5 L505.2,36.2 L505.3,36.2 L505.4,36.2 L505.5,36.1 L505.6,36.0 L506.8,35.4 L507.1,35.2 L507.6,35.0 L510.9,32.2 L510.9,32.2 L511.6,31.3 L511.8,31.2 L511.8,31.1 L511.8,30.9 L511.9,30.2 L512.1,30.2 L512.8,29.8 L514.1,29.1 L514.5,28.9 L515.1,28.6 L515.2,28.6 L519.0,27.9 L519.9,27.7 L521.2,27.5 L524.8,26.8 L525.0,26.8 L525.9,26.6 L526.2,26.5 L526.4,26.4 L527.9,25.8 L528.2,25.7 L529.0,25.2 L529.3,25.1 L530.1,24.0 L530.4,23.7 L530.5,23.6 L535.6,21.3 L536.4,21.0 L536.5,20.9 L542.3,17.3 L542.7,17.1 L543.0,16.4 L543.4,15.5 L543.5,15.2 L543.1,14.1 L543.1,14.1 L543.0,14.1 L542.7,13.8 L542.2,13.5 L541.9,13.3 L541.2,12.9 L541.1,12.8 L540.9,12.7 L540.3,12.5 L540.0,12.4 L539.4,12.2 L537.0,11.4 L533.7,10.3 L533.5,10.3 L533.5,10.3 L533.3,10.3 L533.3,10.3 L533.2,10.3 L533.0,10.3 L530.3,10.1 L529.1,10.0 L528.8,10.0 L526.8,9.3 L526.1,8.9 L527.4,8.6 L527.8,8.5 L530.7,9.0 L544.0,9.0 L544.1,9.0 L545.6,9.3 L546.7,9.4 L547.1,9.5 L547.2,9.5 L547.7,9.7 L548.2,9.8 L548.3,9.9 L550.6,10.6 L560.8,10.3 L566.9,11.5 L573.9,11.3 L574.1,11.3 L574.6,11.3 L575.0,11.2 L575.3,11.2 L576.4,11.1 L576.6,11.1 L578.3,10.5 L579.0,10.3 L579.1,10.3 L579.1,10.3 L579.1,10.3 L580.7,8.9 L580.9,8.8 L581.3,7.4 L579.5,6.6 L578.3,6.0 L578.3,6.0 L578.1,5.7 L581.1,4.6 L582.6,4.3 L582.6,4.3 L582.9,4.2 L587.9,5.3 L590.1,5.1 L592.0,4.4 L592.4,4.5 L592.3,85.5 L526.8,87.2 L507.0,72.9 Z"/>
<path d="M781.4,476.9 L781.1,435.9 L780.4,421.7 L808.0,421.6 L835.7,421.5 L835.9,421.5 L891.1,421.2 L892.8,476.9 L837.4,478.4 L838.1,492.7 L782.6,493.1 L781.4,476.9 Z"/>
<path d="M621.6,268.9 L678.0,268.9 L725.4,268.7 L725.3,295.5 L725.1,323.3 L622.1,325.0 L621.6,269.2 L621.6,268.9 Z"/>
<path d="M379.1,169.1 L380.1,169.7 L382.0,170.3 L382.8,170.4 L383.1,170.4 L383.8,170.4 L384.0,170.5 L386.1,170.7 L386.8,170.6 L387.3,170.6 L388.6,170.5 L388.8,170.5 L388.8,170.5 L390.0,170.1 L390.1,170.1 L390.1,170.0 L390.1,170.0 L390.5,168.4 L390.7,167.8 L390.7,167.7 L390.7,167.6 L392.9,163.7 L393.0,163.7 L401.3,154.6 L402.9,153.8 L404.3,153.1 L404.9,150.5 L404.9,150.5 L404.9,150.4 L399.6,150.2 L399.5,150.2 L398.1,150.7 L396.9,149.5 L397.3,149.3 L397.4,149.2 L398.6,148.5 L398.8,148.4 L398.8,148.4 L400.0,147.7 L402.8,146.0 L402.9,145.8 L403.1,145.7 L404.2,144.6 L404.9,143.3 L405.2,142.7 L407.3,138.9 L407.3,138.8 L407.2,138.7 L406.9,137.9 L406.9,137.8 L407.2,137.2 L407.4,136.7 L407.7,136.6 L413.8,134.2 L413.9,134.1 L417.9,134.0 L418.5,134.8 L418.7,135.2 L419.0,135.6 L419.1,135.8 L419.5,136.9 L419.6,137.0 L419.9,137.7 L420.3,138.8 L419.9,139.2 L419.0,139.1 L418.8,139.1 L418.7,139.1 L418.6,139.1 L418.1,139.2 L415.4,140.0 L414.7,142.6 L414.5,143.2 L414.3,143.8 L414.1,144.2 L414.1,144.2 L414.1,144.3 L414.1,144.5 L414.1,144.6 L414.1,144.6 L414.1,144.8 L414.1,144.8 L413.9,147.2 L413.8,147.4 L414.6,148.2 L414.7,148.4 L414.8,148.5 L414.5,149.2 L414.5,149.3 L412.6,154.4 L411.9,155.4 L411.6,155.9 L411.5,156.0 L410.2,157.1 L410.1,157.2 L409.3,157.3 L408.9,157.4 L408.1,157.6 L407.7,157.6 L407.6,157.6 L405.7,158.3 L404.2,158.9 L403.0,159.3 L402.7,159.4 L402.1,159.9 L401.3,160.4 L401.0,160.6 L399.9,161.4 L399.7,161.5 L399.4,161.7 L399.0,162.0 L398.5,162.7 L397.9,163.4 L397.9,163.4 L397.9,163.6 L397.9,164.9 L397.9,164.9 L397.9,165.5 L397.9,165.7 L397.9,165.8 L397.9,166.7 L397.9,166.7 L395.9,169.1 L395.4,169.8 L394.4,171.1 L394.2,171.4 L394.1,171.5 L394.3,171.6 L395.3,172.3 L399.2,173.3 L399.3,173.3 L399.4,173.3 L403.1,173.6 L405.7,173.4 L406.6,172.8 L409.9,170.9 L411.0,170.2 L411.0,170.2 L411.0,170.1 L411.2,169.4 L411.1,169.2 L411.0,168.5 L410.9,168.0 L410.4,167.6 L409.9,167.1 L410.1,166.8 L410.3,166.6 L412.2,164.4 L413.0,164.1 L415.7,163.3 L416.3,163.1 L417.4,162.8 L417.8,162.6 L417.9,162.6 L418.0,162.6 L418.0,162.5 L420.8,160.9 L420.8,160.9 L420.8,160.9 L420.9,160.7 L421.4,159.2 L422.1,158.6 L422.1,158.6 L422.1,158.5 L422.4,158.2 L422.6,158.1 L423.2,157.5 L425.7,155.3 L451.4,163.0 L451.1,211.8 L337.4,211.6 L338.1,169.1 L379.1,169.1 Z"/>
<path d="M621.7,381.8 L677.5,381.8 L678.0,436.6 L678.0,437.2 L678.0,437.3 L678.0,438.3 L567.8,438.2 L565.7,381.7 L621.7,381.8 Z"/>
<path d="M671.3,667.8 L670.6,667.8 L670.6,667.8 L661.5,668.0 L575.1,669.4 L575.1,667.5 L575.1,665.4 L575.1,663.4 L575.1,662.6 L575.1,661.7 L572.1,659.0 L570.6,659.0 L570.3,608.2 L597.8,608.6 L679.1,608.1 L679.8,667.6 L671.3,667.8 Z"/>
<path d="M1091.8,345.3 L971.6,347.7 L889.7,349.0 L889.5,339.1 L890.1,338.3 L891.4,337.1 L895.9,333.7 L896.2,332.8 L895.6,332.3 L894.4,332.1 L896.4,329.6 L899.2,327.5 L901.5,327.3 L902.7,326.7 L902.9,326.2 L902.4,324.6 L902.8,323.3 L903.6,322.3 L907.6,321.1 L907.9,320.9 L907.8,320.3 L915.0,318.2 L921.3,314.4 L921.4,312.2 L921.0,311.5 L919.2,310.5 L917.6,310.2 L917.4,309.6 L917.7,309.3 L919.9,308.7 L924.5,308.4 L927.5,307.6 L933.0,305.1 L936.1,302.1 L937.8,300.0 L937.9,299.3 L946.0,298.1 L953.4,297.7 L956.9,297.9 L965.2,296.7 L967.6,296.1 L971.0,294.8 L974.0,294.5 L980.7,294.8 L983.8,294.5 L985.5,294.0 L988.4,292.4 L992.3,288.3 L993.5,287.7 L999.5,287.4 L1001.5,287.1 L1007.0,284.3 L1009.0,284.3 L1009.5,284.7 L1011.7,284.9 L1016.0,283.7 L1019.1,283.5 L1025.2,286.7 L1028.5,287.7 L1038.5,289.0 L1047.9,291.2 L1049.0,292.8 L1050.2,293.5 L1054.5,293.9 L1058.9,295.6 L1060.6,296.7 L1063.1,299.5 L1066.9,303.2 L1067.5,303.4 L1071.3,308.3 L1074.8,313.9 L1080.3,316.5 L1083.1,319.0 L1083.2,320.0 L1082.1,320.3 L1082.1,320.6 L1082.9,321.4 L1085.4,322.4 L1089.1,332.6 L1088.8,334.6 L1089.2,336.1 L1090.4,337.3 L1091.8,345.3 Z"/>
<path d="M727.3,493.8 L728.7,504.5 L731.4,551.0 L623.4,551.4 L622.8,494.9 L679.0,494.9 L679.0,493.9 L727.3,493.8 Z"/>
<path d="M456.1,438.2 L567.8,438.2 L567.8,494.8 L512.1,494.7 L456.8,494.9 L456.1,438.2 Z"/>
<path d="M924.6,211.8 L924.7,216.0 L922.6,222.8 L922.5,225.2 L923.1,227.6 L923.8,228.5 L923.8,229.3 L920.9,234.5 L920.6,236.8 L921.2,239.7 L920.2,240.9 L918.6,241.4 L916.6,241.0 L913.7,241.0 L911.6,241.7 L904.9,246.0 L902.0,247.1 L900.8,248.2 L899.3,250.7 L898.4,251.2 L895.3,251.9 L894.6,250.6 L894.1,250.5 L891.0,249.8 L890.6,249.7 L886.7,249.5 L881.8,250.1 L879.8,250.5 L876.0,252.5 L873.0,254.7 L870.3,258.1 L869.5,260.8 L869.2,262.8 L866.6,268.4 L791.7,268.7 L791.1,212.3 L924.6,211.8 Z"/>
<path d="M509.6,381.7 L508.7,325.3 L622.1,325.0 L621.7,381.8 L565.7,381.7 L509.6,381.7 Z"/>
<path d="M733.4,608.4 L679.1,608.1 L597.8,608.6 L595.7,551.5 L623.4,551.4 L731.4,551.0 L733.6,551.0 L733.4,608.4 Z"/>
<path d="M459.3,551.8 L459.2,552.3 L459.8,580.0 L460.6,608.4 L350.3,608.7 L350.0,551.6 L401.9,551.5 L459.3,551.8 Z"/>
<path d="M564.5,212.0 L451.1,211.8 L451.4,163.0 L461.0,155.3 L565.4,155.6 L564.5,212.0 Z"/>
<path d="M343.9,409.9 L395.3,409.7 L397.4,409.7 L456.2,409.7 L456.1,438.2 L456.8,494.9 L401.4,495.2 L362.1,495.2 L345.7,495.2 L345.1,459.6 L344.3,452.5 L343.8,424.2 L343.9,409.9 Z"/>
<path d="M284.8,267.8 L336.6,268.3 L337.0,268.3 L396.9,268.2 L397.4,325.0 L285.7,325.0 L285.5,324.4 L284.8,267.8 Z"/>
<path d="M891.1,421.2 L916.7,419.3 L916.1,405.1 L971.0,404.4 L971.4,411.4 L999.2,411.2 L1000.2,432.5 L1003.2,474.8 L998.6,474.9 L993.8,475.3 L975.2,475.6 L892.8,476.9 L891.1,421.2 Z"/>
<path d="M379.1,169.1 L338.1,169.1 L277.5,168.5 L277.8,164.2 L279.1,161.5 L279.1,159.3 L277.9,154.4 L277.6,151.2 L278.0,149.4 L279.0,147.8 L280.8,147.0 L285.6,146.2 L287.3,147.6 L289.6,148.3 L292.4,148.8 L296.4,148.7 L299.3,147.8 L301.0,146.3 L302.4,144.0 L303.7,143.0 L305.7,142.1 L308.2,139.9 L309.1,138.3 L310.7,137.6 L314.4,137.7 L318.7,138.7 L320.1,139.4 L322.8,141.7 L325.2,142.4 L328.9,142.6 L333.1,142.2 L338.0,141.3 L339.9,140.7 L346.2,136.1 L346.7,135.3 L347.2,132.4 L348.3,130.0 L350.6,128.7 L354.2,124.2 L355.5,123.5 L362.2,121.8 L366.1,120.1 L369.5,117.4 L370.8,115.3 L371.0,113.6 L375.4,108.8 L384.2,102.1 L385.5,102.5 L385.9,103.1 L387.0,103.5 L390.2,103.5 L391.9,103.2 L396.9,101.2 L397.6,99.9 L400.1,98.3 L402.6,98.3 L405.8,101.7 L404.7,103.7 L403.4,104.3 L399.8,105.3 L397.6,106.7 L397.5,107.0 L397.3,107.3 L397.1,107.4 L396.8,107.5 L396.5,107.5 L396.0,107.5 L395.6,107.3 L394.7,107.2 L390.8,107.6 L388.6,108.2 L385.2,111.8 L386.4,114.1 L392.5,120.9 L394.9,121.4 L396.6,122.9 L396.6,125.4 L395.6,125.8 L394.7,125.5 L389.3,125.9 L388.7,129.0 L386.5,130.4 L383.5,131.8 L387.0,134.0 L387.6,134.0 L388.0,136.7 L388.1,144.4 L383.6,145.0 L382.6,145.3 L379.2,150.3 L377.9,151.4 L377.1,153.0 L376.3,157.0 L376.5,159.9 L378.8,163.2 L379.9,166.6 L379.0,169.0 L379.1,169.1 Z"/>
<path d="M272.7,131.2 L267.5,132.6 L263.2,133.0 L258.3,132.1 L257.8,130.8 L258.3,129.6 L261.4,126.0 L262.2,125.5 L266.9,124.6 L272.8,125.8 L276.1,127.5 L272.7,127.4 L271.8,127.6 L271.1,128.2 L270.7,128.8 L270.9,129.6 L272.7,131.2 Z"/>
<path d="M286.8,106.8 L293.2,107.2 L296.2,107.7 L297.1,108.0 L300.1,110.0 L300.2,112.9 L299.2,114.1 L298.4,118.4 L298.7,119.4 L300.0,120.6 L300.1,122.3 L295.3,123.4 L291.6,122.1 L290.0,120.9 L285.9,118.4 L282.3,117.0 L280.9,116.1 L280.5,115.5 L279.4,109.7 L280.7,107.8 L282.8,106.8 L284.2,106.6 L286.8,106.8 Z"/>
<path d="M792.5,665.5 L679.8,667.6 L679.1,608.1 L733.4,608.4 L817.5,606.6 L820.1,664.9 L792.5,665.5 L792.5,665.5 Z"/>
<path d="M838.1,492.7 L839.0,507.0 L843.2,549.9 L777.4,551.1 L733.6,551.0 L731.4,551.0 L728.7,504.5 L727.3,493.8 L782.6,493.1 L838.1,492.7 Z"/>
<path d="M979.7,547.3 L978.9,533.1 L978.6,530.7 L978.5,528.4 L976.0,489.9 L975.2,475.6 L993.8,475.3 L998.6,474.9 L1003.2,474.8 L1060.6,474.1 L1067.9,508.9 L1063.6,509.1 L1057.3,511.2 L1054.4,513.4 L1050.8,514.0 L1048.1,513.5 L1046.9,513.7 L1043.1,515.9 L1041.6,518.2 L1041.8,519.8 L1043.7,520.7 L1048.9,521.9 L1049.2,522.8 L1048.9,523.7 L1049.1,525.3 L1050.6,527.1 L1050.4,528.2 L1049.9,528.4 L1048.9,527.6 L1047.1,527.2 L1041.4,527.3 L1038.3,527.7 L1035.5,528.9 L1034.7,529.7 L1034.3,530.8 L1032.4,531.9 L1032.2,532.1 L1028.8,534.9 L1027.0,538.6 L1026.6,543.3 L1029.7,546.7 L979.7,547.3 Z"/>
<path d="M203.8,266.0 L205.3,264.2 L205.4,264.2 L209.4,261.2 L211.3,258.6 L211.4,258.5 L212.0,257.7 L212.6,256.7 L213.9,254.4 L217.8,252.3 L217.9,252.1 L219.7,249.7 L219.9,249.5 L220.3,249.0 L220.3,249.0 L220.4,248.8 L221.0,248.2 L221.2,248.0 L221.4,247.8 L223.1,246.0 L223.1,245.9 L224.1,244.9 L231.5,238.9 L235.5,229.8 L236.4,226.6 L236.3,224.4 L235.5,221.6 L235.5,219.4 L236.2,216.5 L236.2,216.5 L236.2,216.5 L237.4,215.5 L238.6,213.5 L239.8,210.8 L337.4,211.6 L336.6,268.3 L284.8,267.8 L203.8,266.0 Z"/>
<path d="M193.4,324.3 L193.4,321.5 L193.4,321.5 L193.4,321.3 L193.4,320.9 L193.3,320.8 L193.0,319.4 L192.8,318.9 L192.7,318.5 L192.7,318.4 L192.6,318.3 L192.5,317.9 L190.0,312.9 L189.9,312.4 L189.9,312.0 L189.8,311.0 L189.4,308.3 L189.4,308.3 L189.4,308.2 L189.0,307.4 L188.6,306.4 L187.9,304.6 L185.9,299.9 L185.9,299.7 L185.9,299.7 L185.8,299.7 L181.5,295.2 L181.1,294.8 L180.9,294.6 L176.8,291.4 L176.5,291.1 L176.2,290.8 L176.1,290.8 L175.1,289.7 L173.7,287.2 L173.7,285.6 L173.7,285.6 L173.8,285.5 L175.1,284.0 L175.1,284.0 L175.2,283.9 L176.9,282.8 L177.1,282.7 L177.7,282.5 L184.4,279.8 L187.8,278.5 L189.5,277.9 L189.6,277.8 L189.7,277.8 L189.7,277.7 L193.7,275.5 L194.4,275.0 L194.6,274.8 L194.8,274.7 L195.6,274.0 L195.7,274.0 L200.5,269.5 L201.2,268.8 L201.4,268.6 L201.5,268.4 L203.8,266.0 L284.8,267.8 L285.5,324.4 L285.7,325.0 L196.8,324.3 L193.4,324.3 Z"/>
<path d="M397.4,381.4 L397.4,325.0 L508.7,325.3 L509.6,381.7 L397.4,381.4 Z"/>
<path d="M-12.2,55.2 L-14.8,56.7 L-15.4,56.9 L-17.8,59.2 L-18.5,59.8 L-18.6,60.0 L-18.7,60.5 L-18.8,60.6 L-18.5,61.4 L-18.5,61.5 L-18.0,62.0 L-17.8,62.3 L-17.5,62.4 L-17.2,62.5 L-17.0,62.5 L-16.8,62.6 L-16.8,62.7 L-17.2,63.4 L-17.4,63.5 L-17.7,63.7 L-18.0,64.0 L-19.2,65.0 L-19.7,65.2 L-22.7,66.2 L-22.8,66.3 L-24.7,67.5 L-24.8,67.7 L-24.9,67.9 L-25.8,69.4 L-27.5,70.1 L-31.4,72.0 L-31.7,72.2 L-31.7,72.2 L-31.8,72.2 L-32.2,72.4 L-32.5,72.5 L-32.9,73.4 L-34.2,75.7 L-36.6,77.4 L-40.6,80.4 L-41.7,81.1 L-42.7,82.5 L-43.0,82.9 L-43.0,83.2 L-43.4,84.8 L-47.3,86.9 L-47.5,87.0 L-49.4,88.0 L-49.5,88.1 L-57.0,93.4 L-58.5,94.5 L-58.7,94.7 L-60.6,96.1 L-64.9,98.7 L-66.0,99.4 L-69.2,101.4 L-70.0,101.7 L-70.9,102.0 L-72.6,102.6 L-77.0,105.0 L-77.8,105.5 L-78.3,105.9 L-80.4,107.7 L-81.4,108.6 L-83.0,110.6 L-83.1,110.6 L-83.4,111.0 L-84.0,112.5 L-84.0,112.6 L-83.9,112.9 L-83.9,112.9 L-83.8,113.1 L-83.6,114.0 L-83.3,114.2 L-82.8,114.6 L-82.4,114.8 L-82.2,115.0 L-81.8,115.3 L-81.7,115.4 L-81.7,115.4 L-81.7,115.4 L-81.6,115.5 L-81.4,115.6 L-81.2,115.8 L-80.9,115.9 L-80.6,116.0 L-79.4,116.6 L-78.9,116.8 L-78.7,116.8 L-77.0,116.7 L-78.9,117.0 L-95.3,115.0 L-112.1,104.7 L-113.0,103.8 L-114.5,100.3 L-114.0,99.7 L-112.1,98.9 L-107.4,92.9 L-106.5,90.5 L-106.8,90.2 L-92.5,77.3 L-92.4,75.5 L-94.7,72.6 L-98.8,70.4 L-101.4,69.3 L-103.3,69.1 L-109.1,71.2 L-116.8,75.3 L-121.4,75.4 L-125.9,75.1 L-135.8,75.3 L-136.5,75.5 L-137.1,76.4 L-139.9,77.2 L-148.2,75.3 L-148.9,74.9 L-142.4,63.7 L-132.9,57.7 L-131.2,57.1 L-129.7,55.8 L-127.9,53.7 L-126.5,51.3 L-125.5,40.5 L-126.3,32.3 L-127.2,31.9 L-133.8,27.3 L-133.7,25.3 L-123.9,23.1 L-123.7,21.9 L-129.8,17.4 L-134.9,15.1 L-104.0,15.0 L-104.0,-13.6 L-85.3,-13.6 L-85.2,-27.7 L-26.7,-27.6 L-16.8,-13.5 L-17.2,43.0 L-2.4,43.1 L-6.2,48.4 L-8.1,51.0 L-8.2,51.2 L-12.2,55.2 Z"/>
<path d="M677.5,381.8 L621.7,381.8 L622.1,325.0 L725.1,323.3 L724.9,365.1 L724.4,379.2 L677.5,381.8 Z"/>
<path d="M564.5,212.0 L563.4,226.4 L564.4,268.8 L509.1,268.3 L450.9,268.2 L451.1,211.8 L564.5,212.0 Z"/>
<path d="M911.9,640.5 L911.8,640.4 L910.1,640.8 L909.6,641.0 L907.9,642.5 L906.8,643.4 L906.2,643.9 L903.4,647.2 L903.1,647.6 L900.1,648.9 L900.1,648.9 L899.4,649.0 L899.2,649.1 L898.0,649.3 L897.3,649.5 L896.9,649.8 L896.8,649.8 L896.1,650.4 L895.6,651.1 L895.4,652.3 L895.4,652.7 L895.3,653.3 L895.2,654.3 L896.5,657.2 L896.5,657.4 L896.6,657.5 L896.6,657.5 L897.0,658.0 L897.3,658.4 L897.6,658.8 L897.6,658.9 L897.8,659.1 L897.9,659.2 L898.1,659.4 L898.9,660.6 L898.9,660.6 L898.9,660.6 L899.2,661.0 L899.7,662.1 L899.7,662.1 L899.7,662.1 L897.3,662.7 L893.2,663.1 L892.7,663.4 L882.4,663.6 L881.9,663.6 L881.1,663.6 L880.9,663.6 L861.9,664.0 L859.8,664.0 L859.5,664.0 L849.8,664.2 L849.1,664.2 L842.9,664.4 L838.3,664.5 L820.1,664.9 L817.5,606.6 L872.6,606.1 L930.0,604.7 L955.7,615.2 L956.7,616.9 L955.3,618.8 L954.6,619.0 L950.3,619.2 L950.1,620.7 L948.4,621.8 L948.4,621.9 L946.9,621.8 L946.9,621.8 L946.5,621.9 L945.8,622.0 L945.7,622.1 L945.6,622.1 L945.6,622.1 L945.5,622.2 L940.9,624.4 L940.8,624.5 L940.6,624.6 L939.4,626.1 L939.0,626.5 L938.9,626.6 L938.9,626.7 L938.9,627.2 L938.9,627.5 L938.9,628.0 L936.0,629.9 L935.8,629.9 L931.9,629.0 L930.6,629.0 L930.5,629.0 L929.8,629.0 L929.3,629.1 L929.0,629.1 L928.2,629.3 L928.0,629.3 L927.5,629.5 L925.1,630.4 L922.7,632.2 L922.7,632.2 L922.7,632.2 L922.5,632.6 L921.7,633.9 L921.1,634.8 L920.9,635.1 L920.8,635.7 L920.8,635.9 L920.6,636.9 L920.6,636.9 L920.5,637.5 L920.4,637.9 L919.1,639.5 L914.9,641.5 L913.3,641.9 L911.9,640.5 Z"/>
<path d="M456.1,438.2 L456.2,409.7 L397.4,409.7 L397.4,381.4 L509.6,381.7 L565.7,381.7 L567.8,438.2 L456.1,438.2 Z"/>
<path d="M677.1,156.1 L678.3,100.2 L706.5,100.2 L792.3,99.7 L790.6,155.8 L677.1,156.1 Z"/>
<path d="M186.1,380.7 L186.3,380.7 L285.4,381.5 L285.5,409.8 L343.9,409.9 L343.8,424.2 L316.2,424.0 L316.4,438.2 L230.7,438.3 L228.7,435.4 L224.4,430.4 L221.5,427.1 L221.4,427.0 L220.4,425.8 L217.2,422.4 L213.7,418.8 L212.7,417.8 L212.7,417.7 L212.5,417.5 L212.4,417.4 L211.9,416.9 L211.9,416.9 L211.4,416.3 L210.5,415.5 L204.7,409.3 L204.5,409.1 L203.9,408.5 L203.9,408.4 L203.4,407.9 L203.2,407.7 L202.5,407.0 L202.2,406.7 L201.7,406.1 L200.3,404.3 L200.0,403.9 L199.8,403.8 L199.5,403.4 L198.8,402.5 L197.9,401.1 L194.2,395.7 L192.5,393.2 L192.5,393.1 L192.4,393.0 L192.4,393.0 L191.8,391.9 L191.7,391.8 L191.7,391.7 L191.5,391.5 L189.3,387.4 L189.2,387.3 L187.9,384.5 L187.5,383.7 L187.3,383.4 L187.2,383.0 L186.1,380.7 Z"/>
<path d="M397.4,409.7 L395.3,409.7 L343.9,409.9 L285.5,409.8 L285.4,381.5 L285.7,325.0 L397.4,325.0 L397.4,381.4 L397.4,409.7 Z"/>
<path d="M924.9,548.2 L897.5,548.7 L869.7,549.3 L843.2,549.9 L839.0,507.0 L838.1,492.7 L837.4,478.4 L892.8,476.9 L975.2,475.6 L976.0,489.9 L978.5,528.4 L978.6,530.7 L978.9,533.1 L979.7,547.3 L931.7,548.1 L924.9,548.2 Z"/>
<path d="M186.1,380.7 L184.5,377.6 L184.5,377.6 L184.5,377.5 L182.6,374.6 L182.5,374.4 L182.2,374.0 L182.1,373.8 L182.0,373.7 L181.6,373.3 L181.5,373.2 L181.5,373.1 L181.4,373.0 L181.2,372.8 L181.2,372.8 L175.8,367.3 L175.0,366.5 L175.0,366.4 L174.3,365.7 L173.9,365.3 L173.6,365.0 L173.5,364.8 L173.4,364.7 L173.3,364.6 L173.1,364.4 L172.8,364.2 L172.5,363.9 L172.4,363.8 L172.4,363.8 L170.3,361.1 L168.3,357.4 L168.1,357.2 L168.1,356.8 L168.0,356.7 L168.0,356.5 L168.0,356.3 L168.0,356.3 L167.6,354.6 L167.6,354.5 L167.6,354.3 L167.6,353.1 L167.6,352.8 L167.6,352.6 L168.1,350.7 L168.2,350.4 L168.2,350.3 L170.2,347.5 L170.3,347.3 L170.7,347.1 L170.9,346.9 L173.0,345.3 L173.4,345.0 L173.8,344.7 L174.6,344.1 L174.8,344.0 L175.4,343.6 L175.6,343.4 L176.1,343.1 L176.4,342.9 L176.5,342.9 L176.7,342.7 L178.1,341.8 L179.9,340.7 L180.2,340.4 L181.5,339.7 L181.7,339.5 L181.7,339.5 L181.8,339.4 L185.8,336.5 L186.2,336.2 L186.5,335.9 L190.0,332.2 L190.1,332.1 L190.1,332.0 L190.6,331.2 L191.8,329.4 L191.9,329.2 L193.4,325.0 L193.4,324.9 L193.4,324.4 L193.4,324.3 L196.8,324.3 L285.7,325.0 L285.4,381.5 L186.3,380.7 L186.1,380.7 Z"/>
<path d="M677.4,212.6 L791.1,212.3 L791.7,268.7 L725.4,268.7 L678.0,268.9 L678.4,266.5 L677.4,212.6 Z"/>
<path d="M509.1,268.3 L508.7,325.3 L397.4,325.0 L396.9,268.2 L450.9,268.2 L509.1,268.3 Z"/>
<path d="M677.1,156.1 L790.6,155.8 L791.1,212.3 L677.4,212.6 L677.1,156.1 Z"/>
<path d="M677.1,156.1 L565.4,155.6 L563.0,113.5 L591.8,113.8 L591.9,99.7 L678.3,100.2 L677.1,156.1 Z"/>
<path d="M343.8,424.2 L344.3,452.5 L345.1,459.6 L345.7,495.2 L245.6,495.3 L245.1,492.6 L244.9,484.6 L245.1,480.4 L244.3,476.4 L243.9,470.7 L241.5,459.4 L240.0,454.9 L237.3,449.4 L235.9,448.2 L235.8,446.6 L234.8,443.9 L230.7,438.3 L316.4,438.2 L316.2,424.0 L343.8,424.2 Z"/>
<path d="M716.5,30.6 L718.4,31.5 L722.0,34.2 L727.5,37.4 L731.7,39.3 L734.2,41.1 L734.7,42.0 L734.6,44.4 L735.7,47.4 L737.0,49.1 L738.8,50.4 L741.9,51.7 L746.6,52.8 L751.2,53.0 L755.0,52.3 L755.9,51.9 L757.7,51.7 L762.2,52.1 L764.8,52.7 L769.6,52.2 L778.7,52.4 L785.7,53.6 L792.2,56.5 L797.6,59.9 L801.6,61.8 L809.8,64.4 L814.0,64.8 L817.7,64.7 L821.8,65.7 L826.1,65.7 L829.8,65.3 L835.5,68.1 L842.4,70.0 L848.1,72.1 L858.6,75.2 L865.3,76.1 L870.1,75.5 L870.9,75.2 L871.1,74.3 L872.9,74.3 L877.1,76.1 L878.4,76.2 L882.6,74.4 L884.5,74.7 L887.1,76.9 L887.1,77.0 L889.4,78.5 L894.6,82.0 L897.6,83.2 L899.5,84.3 L899.9,85.0 L900.1,85.2 L900.1,85.2 L900.1,85.3 L900.5,85.4 L905.1,87.1 L905.2,87.1 L905.2,87.1 L905.3,87.1 L905.6,87.1 L908.1,87.5 L908.9,87.9 L909.7,88.8 L908.2,91.1 L902.4,92.6 L902.4,93.7 L904.0,95.6 L908.3,98.8 L792.3,99.7 L706.5,100.2 L705.2,30.8 L716.5,30.6 Z"/>
<path d="M621.6,268.9 L564.4,268.8 L563.4,226.4 L564.5,212.0 L677.4,212.6 L678.4,266.5 L678.0,268.9 L621.6,268.9 Z"/>
<path d="M752.7,365.3 L752.4,372.3 L784.1,372.6 L807.3,379.7 L835.2,379.7 L835.9,421.5 L835.7,421.5 L808.0,421.6 L780.4,421.7 L781.1,435.9 L678.0,436.6 L677.5,381.8 L724.4,379.2 L724.9,365.1 L752.7,365.3 Z"/>
<path d="M1000.2,432.5 L999.2,411.2 L971.4,411.4 L971.0,404.4 L974.9,404.3 L971.6,347.7 L1091.8,345.3 L1092.1,347.2 L1091.9,348.7 L1093.2,359.5 L1093.8,361.6 L1094.7,363.0 L1096.6,369.1 L1101.3,375.8 L1101.4,376.7 L1104.2,382.1 L1107.5,386.4 L1107.7,387.4 L1107.4,388.9 L1108.4,397.7 L1108.1,400.9 L1109.7,403.3 L1109.9,406.1 L1109.2,407.8 L1111.3,420.9 L1112.3,422.9 L1114.7,425.5 L1116.0,430.0 L1000.2,432.5 Z"/>
<path d="M678.5,464.8 L678.0,438.3 L678.0,437.3 L678.0,437.2 L678.0,436.6 L781.1,435.9 L781.4,476.9 L782.6,493.1 L727.3,493.8 L679.0,493.9 L678.5,464.8 Z"/>
<path d="M1116.0,430.0 L1116.1,430.2 L1116.4,431.2 L1116.4,431.3 L1116.8,431.9 L1117.8,433.6 L1118.1,434.1 L1118.2,434.3 L1118.2,434.3 L1118.2,434.4 L1118.2,434.4 L1118.3,435.1 L1118.4,435.5 L1118.9,437.9 L1119.0,438.3 L1119.0,438.3 L1119.0,438.4 L1119.9,440.5 L1120.0,440.8 L1123.6,443.3 L1126.8,447.5 L1126.8,447.5 L1128.3,449.2 L1130.1,451.0 L1134.9,456.2 L1136.5,456.6 L1129.0,467.7 L1127.3,469.4 L1123.8,475.8 L1120.6,500.9 L1114.4,516.4 L1112.4,520.2 L1111.3,521.3 L1097.0,530.0 L1095.7,530.5 L1091.6,530.8 L1087.4,529.5 L1074.7,535.1 L1073.0,535.7 L1073.2,534.1 L1074.6,533.0 L1076.6,532.6 L1078.2,531.2 L1074.3,529.3 L1074.2,526.6 L1072.6,524.4 L1069.5,524.8 L1067.2,524.0 L1066.7,522.8 L1069.6,521.4 L1073.7,521.0 L1074.1,519.5 L1072.1,518.4 L1072.2,518.1 L1077.0,516.5 L1082.5,517.4 L1086.0,515.7 L1087.1,514.8 L1087.9,513.4 L1087.7,511.9 L1086.0,510.6 L1085.0,510.2 L1079.2,509.7 L1075.8,508.4 L1073.2,507.9 L1069.6,507.9 L1068.3,508.9 L1067.9,508.9 L1060.6,474.1 L1003.2,474.8 L1000.2,432.5 L1116.0,430.0 Z"/>
<path d="M359.3,659.1 L353.4,659.1 L353.3,659.1 L347.5,659.1 L343.7,659.2 L351.0,652.7 L350.3,608.7 L460.6,608.4 L460.9,659.0 L459.4,659.0 L457.2,659.0 L454.8,659.0 L451.9,659.0 L447.3,659.0 L440.5,659.0 L429.1,659.0 L427.9,659.1 L408.3,659.1 L407.8,659.1 L386.8,659.1 L386.6,659.1 L383.3,659.2 L382.7,659.1 L380.9,659.1 L377.4,659.1 L376.7,659.1 L374.6,659.1 L359.3,659.1 Z"/>
<path d="M835.9,421.5 L835.2,379.7 L835.0,360.8 L835.1,360.5 L842.0,361.5 L842.9,361.4 L845.7,360.1 L854.0,355.3 L859.4,351.8 L867.0,346.3 L869.3,346.1 L870.4,344.8 L869.8,343.8 L872.4,342.3 L876.0,341.0 L878.1,340.8 L878.7,341.4 L880.3,342.0 L886.6,341.4 L888.9,339.9 L889.5,339.1 L889.7,349.0 L971.6,347.7 L974.9,404.3 L971.0,404.4 L916.1,405.1 L916.7,419.3 L891.1,421.2 L835.9,421.5 Z"/>
<path d="M242.3,608.4 L242.1,580.5 L208.9,580.5 L211.0,578.7 L219.0,569.5 L224.8,561.8 L227.8,555.9 L227.7,554.7 L229.6,552.8 L230.3,551.9 L350.0,551.6 L350.3,608.7 L242.3,608.4 Z"/>
<path d="M872.0,591.7 L872.6,606.1 L817.5,606.6 L733.4,608.4 L733.6,551.0 L777.4,551.1 L843.2,549.9 L869.7,549.3 L870.7,563.3 L872.0,591.7 Z"/>
<path d="M869.7,549.3 L897.5,548.7 L924.9,548.2 L931.7,548.1 L979.7,547.3 L1029.7,546.7 L1029.8,546.7 L1026.1,553.7 L1025.5,555.3 L1024.2,556.7 L1023.2,557.4 L1019.3,558.6 L1018.3,559.2 L1016.0,561.6 L1017.2,562.8 L1008.9,564.8 L1002.0,566.0 L995.0,566.4 L984.3,568.4 L980.6,569.8 L976.6,572.9 L969.2,581.2 L968.5,587.1 L967.9,591.6 L970.1,597.6 L968.0,605.7 L962.3,606.1 L959.7,608.0 L959.2,608.1 L955.0,609.2 L954.9,609.9 L955.4,610.1 L955.7,611.5 L955.1,614.9 L955.7,615.2 L955.7,615.2 L930.0,604.7 L872.6,606.1 L872.0,591.7 L870.7,563.3 L869.7,549.3 Z"/>
<path d="M450.9,268.2 L396.9,268.2 L337.0,268.3 L336.6,268.3 L337.4,211.6 L451.1,211.8 L450.9,268.2 Z"/>
</g>
<g fill="none" stroke="#5c6f82" stroke-width="2.2" opacity=".85">
</g>
<circle cx="815.6" cy="593.0" r="9.8" fill="#cf102d" opacity=".18" filter="url(#soft)"/>
<circle cx="815.6" cy="593.0" r="6.8" fill="#cf102d" stroke="#fff" stroke-width="1.6"/>
<circle cx="885.2" cy="582.3" r="9.8" fill="#cf102d" opacity=".18" filter="url(#soft)"/>
<circle cx="885.2" cy="582.3" r="6.8" fill="#cf102d" stroke="#fff" stroke-width="1.6"/>
<circle cx="846.6" cy="535.5" r="9.8" fill="#cf102d" opacity=".18" filter="url(#soft)"/>
<circle cx="846.6" cy="535.5" r="6.8" fill="#cf102d" stroke="#fff" stroke-width="1.6"/>
<circle cx="947.4" cy="543.1" r="9.8" fill="#cf102d" opacity=".18" filter="url(#soft)"/>
<circle cx="947.4" cy="543.1" r="6.8" fill="#cf102d" stroke="#fff" stroke-width="1.6"/>
<circle cx="949.8" cy="578.2" r="9.8" fill="#cf102d" opacity=".18" filter="url(#soft)"/>
<circle cx="949.8" cy="578.2" r="6.8" fill="#cf102d" stroke="#fff" stroke-width="1.6"/>
<circle cx="660.4" cy="525.8" r="9.8" fill="#cf102d" opacity=".18" filter="url(#soft)"/>
<circle cx="660.4" cy="525.8" r="6.8" fill="#cf102d" stroke="#fff" stroke-width="1.6"/>
<circle cx="743.5" cy="521.4" r="9.8" fill="#cf102d" opacity=".18" filter="url(#soft)"/>
<circle cx="743.5" cy="521.4" r="6.8" fill="#cf102d" stroke="#fff" stroke-width="1.6"/>
<circle cx="825.5" cy="602.1" r="9.8" fill="#cf102d" opacity=".18" filter="url(#soft)"/>
<circle cx="825.5" cy="602.1" r="6.8" fill="#cf102d" stroke="#fff" stroke-width="1.6"/>
<circle cx="799.7" cy="597.2" r="9.8" fill="#cf102d" opacity=".18" filter="url(#soft)"/>
<circle cx="799.7" cy="597.2" r="6.8" fill="#cf102d" stroke="#fff" stroke-width="1.6"/>
<circle cx="856.0" cy="581.0" r="9.8" fill="#cf102d" opacity=".18" filter="url(#soft)"/>
<circle cx="856.0" cy="581.0" r="6.8" fill="#cf102d" stroke="#fff" stroke-width="1.6"/>
<circle cx="369.8" cy="481.9" r="9.8" fill="#cf102d" opacity=".18" filter="url(#soft)"/>
<circle cx="369.8" cy="481.9" r="6.8" fill="#cf102d" stroke="#fff" stroke-width="1.6"/>
<circle cx="353.4" cy="503.0" r="9.8" fill="#cf102d" opacity=".18" filter="url(#soft)"/>
<circle cx="353.4" cy="503.0" r="6.8" fill="#cf102d" stroke="#fff" stroke-width="1.6"/>
<circle cx="449.7" cy="468.9" r="9.8" fill="#cf102d" opacity=".18" filter="url(#soft)"/>
<circle cx="449.7" cy="468.9" r="6.8" fill="#cf102d" stroke="#fff" stroke-width="1.6"/>
<circle cx="407.4" cy="571.3" r="9.8" fill="#cf102d" opacity=".18" filter="url(#soft)"/>
<circle cx="407.4" cy="571.3" r="6.8" fill="#cf102d" stroke="#fff" stroke-width="1.6"/>
<circle cx="634.1" cy="501.1" r="9.8" fill="#cf102d" opacity=".18" filter="url(#soft)"/>
<circle cx="634.1" cy="501.1" r="6.8" fill="#cf102d" stroke="#fff" stroke-width="1.6"/>
<circle cx="910.1" cy="633.0" r="9.8" fill="#cf102d" opacity=".18" filter="url(#soft)"/>
<circle cx="910.1" cy="633.0" r="6.8" fill="#cf102d" stroke="#fff" stroke-width="1.6"/>
<circle cx="844.3" cy="626.5" r="9.8" fill="#cf102d" opacity=".18" filter="url(#soft)"/>
<circle cx="844.3" cy="626.5" r="6.8" fill="#cf102d" stroke="#fff" stroke-width="1.6"/>
<circle cx="487.3" cy="176.4" r="9.8" fill="#cf102d" opacity=".18" filter="url(#soft)"/>
<circle cx="487.3" cy="176.4" r="6.8" fill="#cf102d" stroke="#fff" stroke-width="1.6"/>
<circle cx="886.6" cy="498.1" r="9.8" fill="#cf102d" opacity=".18" filter="url(#soft)"/>
<circle cx="886.6" cy="498.1" r="6.8" fill="#cf102d" stroke="#fff" stroke-width="1.6"/>
<circle cx="885.9" cy="550.0" r="9.8" fill="#eab308" opacity=".18" filter="url(#soft)"/>
<circle cx="885.9" cy="550.0" r="6.8" fill="#eab308" stroke="#fff" stroke-width="1.6"/>
<circle cx="885.4" cy="497.3" r="9.8" fill="#eab308" opacity=".18" filter="url(#soft)"/>
<circle cx="885.4" cy="497.3" r="6.8" fill="#eab308" stroke="#fff" stroke-width="1.6"/>
<circle cx="931.0" cy="516.3" r="9.8" fill="#eab308" opacity=".18" filter="url(#soft)"/>
<circle cx="931.0" cy="516.3" r="6.8" fill="#eab308" stroke="#fff" stroke-width="1.6"/>
<circle cx="992.3" cy="525.8" r="9.8" fill="#eab308" opacity=".18" filter="url(#soft)"/>
<circle cx="992.3" cy="525.8" r="6.8" fill="#eab308" stroke="#fff" stroke-width="1.6"/>
<circle cx="988.5" cy="566.2" r="9.8" fill="#eab308" opacity=".18" filter="url(#soft)"/>
<circle cx="988.5" cy="566.2" r="6.8" fill="#eab308" stroke="#fff" stroke-width="1.6"/>
<circle cx="853.7" cy="580.2" r="9.8" fill="#eab308" opacity=".18" filter="url(#soft)"/>
<circle cx="853.7" cy="580.2" r="6.8" fill="#eab308" stroke="#fff" stroke-width="1.6"/>
<circle cx="855.3" cy="580.8" r="9.8" fill="#eab308" opacity=".18" filter="url(#soft)"/>
<circle cx="855.3" cy="580.8" r="6.8" fill="#eab308" stroke="#fff" stroke-width="1.6"/>
<circle cx="650.7" cy="500.2" r="9.8" fill="#eab308" opacity=".18" filter="url(#soft)"/>
<circle cx="650.7" cy="500.2" r="6.8" fill="#eab308" stroke="#fff" stroke-width="1.6"/>
<circle cx="1026.6" cy="482.7" r="9.8" fill="#eab308" opacity=".18" filter="url(#soft)"/>
<circle cx="1026.6" cy="482.7" r="6.8" fill="#eab308" stroke="#fff" stroke-width="1.6"/>
<circle cx="845.5" cy="625.7" r="9.8" fill="#eab308" opacity=".18" filter="url(#soft)"/>
<circle cx="845.5" cy="625.7" r="6.8" fill="#eab308" stroke="#fff" stroke-width="1.6"/>
<circle cx="851.6" cy="469.4" r="9.8" fill="#eab308" opacity=".18" filter="url(#soft)"/>
<circle cx="851.6" cy="469.4" r="6.8" fill="#eab308" stroke="#fff" stroke-width="1.6"/>
<circle cx="353.4" cy="416.9" r="9.8" fill="#eab308" opacity=".18" filter="url(#soft)"/>
<circle cx="353.4" cy="416.9" r="6.8" fill="#eab308" stroke="#fff" stroke-width="1.6"/>
<circle cx="506.0" cy="87.0" r="9.8" fill="#eab308" opacity=".18" filter="url(#soft)"/>
<circle cx="506.0" cy="87.0" r="6.8" fill="#eab308" stroke="#fff" stroke-width="1.6"/>
<circle cx="1045.4" cy="507.2" r="9.8" fill="#eab308" opacity=".18" filter="url(#soft)"/>
<circle cx="1045.4" cy="507.2" r="6.8" fill="#eab308" stroke="#fff" stroke-width="1.6"/>
<circle cx="745.6" cy="590.8" r="9.8" fill="#eab308" opacity=".18" filter="url(#soft)"/>
<circle cx="745.6" cy="590.8" r="6.8" fill="#eab308" stroke="#fff" stroke-width="1.6"/>
<circle cx="755.0" cy="595.6" r="9.8" fill="#eab308" opacity=".18" filter="url(#soft)"/>
<circle cx="755.0" cy="595.6" r="6.8" fill="#eab308" stroke="#fff" stroke-width="1.6"/>
<circle cx="830.2" cy="575.3" r="11.6" fill="#eab308" opacity=".18" filter="url(#soft)"/>
<circle cx="830.2" cy="575.3" r="8.6" fill="#eab308" stroke="#fff" stroke-width="1.6"/>
<circle cx="775.9" cy="389.4" r="9.8" fill="#eab308" opacity=".18" filter="url(#soft)"/>
<circle cx="775.9" cy="389.4" r="6.8" fill="#eab308" stroke="#fff" stroke-width="1.6"/>
<circle cx="815.9" cy="592.9" r="9.8" fill="#eab308" opacity=".18" filter="url(#soft)"/>
<circle cx="815.9" cy="592.9" r="6.8" fill="#eab308" stroke="#fff" stroke-width="1.6"/>
<circle cx="846.4" cy="545.2" r="9.8" fill="#eab308" opacity=".18" filter="url(#soft)"/>
<circle cx="846.4" cy="545.2" r="6.8" fill="#eab308" stroke="#fff" stroke-width="1.6"/>
<circle cx="733.9" cy="607.0" r="9.8" fill="#eab308" opacity=".18" filter="url(#soft)"/>
<circle cx="733.9" cy="607.0" r="6.8" fill="#eab308" stroke="#fff" stroke-width="1.6"/>
<circle cx="935.9" cy="581.0" r="9.8" fill="#eab308" opacity=".18" filter="url(#soft)"/>
<circle cx="935.9" cy="581.0" r="6.8" fill="#eab308" stroke="#fff" stroke-width="1.6"/>
<circle cx="851.3" cy="499.7" r="9.8" fill="#eab308" opacity=".18" filter="url(#soft)"/>
<circle cx="851.3" cy="499.7" r="6.8" fill="#eab308" stroke="#fff" stroke-width="1.6"/>
<circle cx="881.9" cy="652.5" r="9.8" fill="#eab308" opacity=".18" filter="url(#soft)"/>
<circle cx="881.9" cy="652.5" r="6.8" fill="#eab308" stroke="#fff" stroke-width="1.6"/>
<circle cx="668.1" cy="503.0" r="9.8" fill="#eab308" opacity=".18" filter="url(#soft)"/>
<circle cx="668.1" cy="503.0" r="6.8" fill="#eab308" stroke="#fff" stroke-width="1.6"/>
<circle cx="992.3" cy="494.9" r="9.8" fill="#eab308" opacity=".18" filter="url(#soft)"/>
<circle cx="992.3" cy="494.9" r="6.8" fill="#eab308" stroke="#fff" stroke-width="1.6"/>
<circle cx="226.0" cy="260.1" r="9.8" fill="#eab308" opacity=".18" filter="url(#soft)"/>
<circle cx="226.0" cy="260.1" r="6.8" fill="#eab308" stroke="#fff" stroke-width="1.6"/>
<circle cx="219.2" cy="265.6" r="9.8" fill="#eab308" opacity=".18" filter="url(#soft)"/>
<circle cx="219.2" cy="265.6" r="6.8" fill="#eab308" stroke="#fff" stroke-width="1.6"/>
<circle cx="416.8" cy="345.4" r="9.8" fill="#eab308" opacity=".18" filter="url(#soft)"/>
<circle cx="416.8" cy="345.4" r="6.8" fill="#eab308" stroke="#fff" stroke-width="1.6"/>
<circle cx="873.4" cy="534.7" r="9.8" fill="#eab308" opacity=".18" filter="url(#soft)"/>
<circle cx="873.4" cy="534.7" r="6.8" fill="#eab308" stroke="#fff" stroke-width="1.6"/>
</svg>